<svg id="bubbles" xmlns="http://www.w3.org/2000/svg" width="1920" height="2824" viewBox="0 0 1920 2824">
  <defs>
    <style>
      .cls-1 {
        fill: #7ef2e7;
        opacity: 0.5;
      }

      .cls-1, .cls-2 {
        fill-rule: evenodd;
      }

      .cls-2 {
        fill: #07c7f2;
        opacity: 0.4;
      }
    </style>
  </defs>
  <g>
    <path id="Shape_1_copy_10" data-name="Shape 1 copy 10" class="cls-1" d="M1746.31,2703.36c-8.18-.89-16.7-8.97-24.62-17.29-8.61-9.05-13.9-18.33-14.81-25.2-0.71-5.37,1.02-11.29,4.87-16.68,5.59-7.83,14.14-15.06,21.3-21.07,23.65-19.86,53.47,6.76,63.48,21.24,6.3,9.1,4.37,23.29-.33,30.9-3.2,5.17-8.93,11.13-17.05,17.11C1770.63,2698.64,1759.5,2704.78,1746.31,2703.36Z"/>
    <path id="Shape_1_copy_10-2" data-name="Shape 1 copy 10" class="cls-2" d="M1767.17,2605.91c-6.84-5.88-19.69-6.66-32.29-6.77-13.69-.11-25.07,2.6-31.24,7.01-4.83,3.45-8.26,9.27-9.68,16.38-2.07,10.34-1.43,22.59-.87,32.81,1.87,33.8,45.51,37.74,64.6,34.92,12-1.78,21.9-13.94,24.45-23.4,1.74-6.43,2.2-15.47.89-26.45C1781.65,2628.9,1778.2,2615.39,1767.17,2605.91Z"/>
  </g>
  <g id="Group_5_copy_6" data-name="Group 5 copy 6">
    <path id="Shape_1_copy_8" data-name="Shape 1 copy 8" class="cls-1" d="M163.855,2033.9c1.074,2.32,4.273,4.05,7.481,5.58,3.49,1.66,6.712,2.32,8.8,1.93a7.16,7.16,0,0,0,4.362-3.05,37.936,37.936,0,0,0,3.994-8.3c3.411-8.87-7.3-15.08-12.508-16.64-3.272-.97-7.2.96-8.944,3.08a20.187,20.187,0,0,0-3.27,6.67C162.8,2026.28,162.124,2030.15,163.855,2033.9Z"/>
    <path id="Shape_1_copy_9" data-name="Shape 1 copy 9" class="cls-2" d="M197.622,2013.89c2.392,1.45,3.9,5.16,5.189,8.85,1.4,4.02,1.748,7.64,1.084,9.88a7.9,7.9,0,0,1-3.794,4.43,41.577,41.577,0,0,1-9.448,3.42c-10,2.71-15.507-9.76-16.593-15.65-0.682-3.71,1.863-7.79,4.357-9.46a21.825,21.825,0,0,1,7.6-2.81C189.5,2011.85,193.765,2011.56,197.622,2013.89Z"/>
  </g>
  <g id="Group_5_copy_5" data-name="Group 5 copy 5">
    <path id="Shape_1_copy_8-2" data-name="Shape 1 copy 8" class="cls-1" d="M45.483,128.979c-5.557.513-12.317-3.717-18.7-8.19-6.946-4.868-11.71-10.331-13.243-14.779a16.171,16.171,0,0,1,.991-11.767c2.66-5.969,7.376-11.932,11.326-16.9,13.052-16.418,36.471-2.714,45.084,5.578,5.411,5.211,6.044,14.92,3.94,20.619-1.431,3.877-4.438,8.618-9.036,13.7C61.024,122.558,54.445,128.152,45.483,128.979Z"/>
    <path id="Shape_1_copy_9-2" data-name="Shape 1 copy 9" class="cls-2" d="M46.448,41.822c-5.342-2.993-14-1.778-22.384-.15-9.124,1.77-16.325,5.111-19.837,8.879C1.478,53.5-.015,57.837,0,62.768,0.011,69.927,2.089,78,3.842,84.733c5.792,22.253,35.35,18.99,47.666,14.535,7.738-2.8,12.683-12.231,13.106-18.874,0.288-4.518-.621-10.6-2.974-17.736C59.174,55.181,55.064,46.65,46.448,41.822Z"/>
  </g>
  <g id="Group_5_copy_10" data-name="Group 5 copy 10">
    <path id="Shape_1_copy_8-3" data-name="Shape 1 copy 8" class="cls-1" d="M1831.02,732.482c-0.51-5.556,3.72-12.316,8.19-18.7,4.87-6.947,10.33-11.711,14.78-13.243a16.177,16.177,0,0,1,11.77.991c5.97,2.66,11.93,7.376,16.9,11.326,16.42,13.052,2.71,36.471-5.58,45.083-5.21,5.412-14.92,6.044-20.62,3.941-3.88-1.431-8.62-4.438-13.7-9.036C1837.44,748.023,1831.85,741.445,1831.02,732.482Z"/>
    <path id="Shape_1_copy_9-3" data-name="Shape 1 copy 9" class="cls-2" d="M1918.18,733.447c2.99-5.342,1.78-14,.15-22.383-1.77-9.124-5.11-16.325-8.88-19.837-2.95-2.749-7.29-4.243-12.22-4.232-7.16.015-15.23,2.094-21.96,3.847-22.26,5.791-18.99,35.35-14.54,47.666,2.8,7.738,12.23,12.683,18.88,13.106,4.51,0.288,10.6-.621,17.73-2.974C1904.82,746.174,1913.35,742.063,1918.18,733.447Z"/>
  </g>
  <g id="Group_5_copy" data-name="Group 5 copy">
    <path id="Shape_1_copy_8-4" data-name="Shape 1 copy 8" class="cls-1" d="M1880.99,21.279c0.35,3.875-2.55,8.589-5.62,13.043-3.33,4.844-7.08,8.166-10.13,9.235a10.9,10.9,0,0,1-8.06-.691c-4.09-1.854-8.18-5.144-11.58-7.9-11.26-9.1-1.86-25.434,3.82-31.441,3.57-3.773,10.22-4.213,14.13-2.747a30.723,30.723,0,0,1,9.39,6.3C1876.59,10.441,1880.42,15.029,1880.99,21.279Z"/>
    <path id="Shape_1_copy_9-4" data-name="Shape 1 copy 9" class="cls-2" d="M1821.25,20.606c-2.05,3.726-1.22,9.76-.1,15.609,1.21,6.364,3.5,11.386,6.08,13.834A12,12,0,0,0,1835.61,53c4.9-.011,10.44-1.459,15.05-2.683,15.25-4.039,13.02-24.652,9.96-33.241-1.92-5.4-8.38-8.845-12.93-9.14a33.276,33.276,0,0,0-12.16,2.074C1830.41,11.732,1824.56,14.6,1821.25,20.606Z"/>
  </g>
  <g id="Group_5_copy_11" data-name="Group 5 copy 11">
    <path id="Shape_1_copy_8-5" data-name="Shape 1 copy 8" class="cls-1" d="M913.987,1804.28c0.352,3.87-2.547,8.59-5.614,13.04-3.335,4.85-7.079,8.17-10.129,9.24a10.976,10.976,0,0,1-8.064-.69c-4.092-1.86-8.179-5.15-11.584-7.9-11.253-9.1-1.861-25.44,3.823-31.44,3.572-3.78,10.226-4.22,14.133-2.75a30.73,30.73,0,0,1,9.387,6.3C909.587,1793.44,913.42,1798.03,913.987,1804.28Z"/>
    <path id="Shape_1_copy_9-5" data-name="Shape 1 copy 9" class="cls-2" d="M854.251,1803.61c-2.052,3.72-1.218,9.76-.1,15.6,1.213,6.37,3.5,11.39,6.086,13.84a11.957,11.957,0,0,0,8.373,2.95c4.907-.01,10.439-1.46,15.054-2.68,15.253-4.04,13.016-24.66,9.963-33.24-1.919-5.4-8.384-8.85-12.937-9.14a33.265,33.265,0,0,0-12.157,2.07C863.407,1794.73,857.559,1797.6,854.251,1803.61Z"/>
  </g>
  <g id="Group_5_copy_2" data-name="Group 5 copy 2">
    <path id="Shape_1_copy_8-6" data-name="Shape 1 copy 8" class="cls-1" d="M160.855,703.9c1.074,2.322,4.273,4.054,7.481,5.581,3.49,1.662,6.712,2.323,8.8,1.929a7.162,7.162,0,0,0,4.362-3.042,38.229,38.229,0,0,0,3.994-8.3c3.411-8.878-7.3-15.089-12.508-16.641-3.272-.975-7.2.96-8.944,3.078a20.227,20.227,0,0,0-3.27,6.67C159.8,696.283,159.124,700.153,160.855,703.9Z"/>
    <path id="Shape_1_copy_9-6" data-name="Shape 1 copy 9" class="cls-2" d="M194.622,683.892c2.392,1.447,3.9,5.155,5.189,8.852,1.4,4.02,1.748,7.631,1.084,9.873a7.865,7.865,0,0,1-3.794,4.431,41.337,41.337,0,0,1-9.448,3.419c-10,2.71-15.507-9.759-16.593-15.65-0.681-3.7,1.863-7.789,4.357-9.453a21.8,21.8,0,0,1,7.6-2.812C186.5,681.847,190.765,681.558,194.622,683.892Z"/>
  </g>
  <g id="Group_5_copy_9" data-name="Group 5 copy 9">
    <path id="Shape_1_copy_8-7" data-name="Shape 1 copy 8" class="cls-1" d="M1794.49,376.032c-2.29,1.063-3.99,4.231-5.5,7.408-1.64,3.455-2.29,6.646-1.9,8.711a7.08,7.08,0,0,0,3,4.319,37.4,37.4,0,0,0,8.18,3.955c8.74,3.378,14.86-7.228,16.39-12.386,0.96-3.239-.95-7.132-3.03-8.855a19.924,19.924,0,0,0-6.57-3.239C1801.99,374.984,1798.18,374.318,1794.49,376.032Z"/>
    <path id="Shape_1_copy_9-7" data-name="Shape 1 copy 9" class="cls-2" d="M1814.2,409.467c-1.43,2.369-5.08,3.863-8.72,5.138-3.96,1.388-7.52,1.731-9.73,1.073a7.768,7.768,0,0,1-4.37-3.757,41.17,41.17,0,0,1-3.36-9.354c-2.67-9.907,9.61-15.355,15.42-16.43,3.64-.675,7.67,1.845,9.31,4.314a21.736,21.736,0,0,1,2.77,7.524C1816.21,401.421,1816.5,405.648,1814.2,409.467Z"/>
  </g>
</svg>
