<svg id="Layer_1" data-name="Layer 1" xmlns="http://www.w3.org/2000/svg" viewBox="0 0 108.27 90.1"><defs><style>.cls-1{fill:#231f20;}</style></defs><title>interior_detailing</title><path class="cls-1" d="M23.17,24.11,23.12,24a8.25,8.25,0,0,1-.41-1.92l-.07-.69v-.1a.76.76,0,0,0-.83-.68l-.21.05c-1.87.75-3.39,2.71-4.58,4.47a22.35,22.35,0,0,0-1.81,3.34,25.34,25.34,0,0,1,2.38-2.89,20.43,20.43,0,0,1,2.33-2.12,10.77,10.77,0,0,1,1.21-.83A8,8,0,0,0,21.44,24a14.25,14.25,0,0,0-5.13,3.67c-.69.91-.62,1.19-.62,1.19A16.45,16.45,0,0,1,18,27.23a34.42,34.42,0,0,1,4.77-2.17.72.72,0,0,0,.42-.93Z"/><path class="cls-1" d="M23.82,19.71a2.92,2.92,0,0,0-2.35-.45,8.59,8.59,0,0,0-3.83,2.16,19.86,19.86,0,0,0-4.15,5.42,19.53,19.53,0,0,0-2.31,7.79,7.25,7.25,0,0,0,.61,3.52,3.64,3.64,0,0,0,.55.77,4.78,4.78,0,0,0,.37.35l.3.19a2.86,2.86,0,0,0,1.7.37,5.32,5.32,0,0,0,2.51-1,10.68,10.68,0,0,0,1.64-1.38,14.94,14.94,0,0,0,2-2.52,12.56,12.56,0,0,0,1.39-2.88,2.34,2.34,0,0,0,.15-.64,22,22,0,0,0,1.38-2.7,19,19,0,0,0,1-3.09,9.39,9.39,0,0,0,.18-4A3.28,3.28,0,0,0,23.82,19.71Zm.46,5.85a19,19,0,0,1-.76,3.1,22.49,22.49,0,0,1-1.14,2.78h0A22.41,22.41,0,0,1,20.76,34a18.91,18.91,0,0,1-2.09,2.4,8.83,8.83,0,0,1-3.06,2,2.4,2.4,0,0,1-1.65.05l-.18-.07s-.11-.08-.16-.12a.87.87,0,0,1-.29-.28,2.27,2.27,0,0,1-.39-.7,7.6,7.6,0,0,1-.11-3.74,21.73,21.73,0,0,1,2.12-6,21.68,21.68,0,0,1,3.65-5.18,7.59,7.59,0,0,1,3.12-2.07,1.88,1.88,0,0,1,2.45,1.53A8.84,8.84,0,0,1,24.28,25.56Z"/><path class="cls-1" d="M28.07,20.67a29.78,29.78,0,0,1-1.43,8.63,24.81,24.81,0,0,1-6.08,10c-.74.76-1.6,1.29-2.45,2.08a10.42,10.42,0,0,0-2,2.71,16.91,16.91,0,0,0-1.71,5.84l-9.69.66q0-4.06.05-6.54c0-5.82,0-11,0-15.81A15.92,15.92,0,0,1,9.24,17.5a30.79,30.79,0,0,1,7.34-5.71,42.38,42.38,0,0,1,6.24-2.94l.07,0,.05,0,.13.08.25.17a6,6,0,0,1,.47.38c.32.28.54.53.82.81a15.33,15.33,0,0,1,2.29,4c.42,1,.64,1.71.79,2.16a6.09,6.09,0,0,0,.25.81l-.14-.85v0A21.7,21.7,0,0,0,27.19,14a14.55,14.55,0,0,0-2.07-4.13h0l0,0a7.19,7.19,0,0,0-2-1.76h0l-.06,0a.39.39,0,0,0-.28,0h0l-.22.07h0a39.47,39.47,0,0,0-10,4.88c-3.37,2.31-6.67,5.57-8.27,9.72a16.48,16.48,0,0,0-1.09,6.32c0,2,0,4,0,5.78,0,3.73,0,6.89,0,9.23,0,1.92,0,4.39,0,7.36h0a.79.79,0,0,0,.79.79H4l11-1a.72.72,0,0,0,.65-.67h0a16.17,16.17,0,0,1,1.46-5.9,9.42,9.42,0,0,1,1.7-2.5c.66-.66,1.64-1.35,2.38-2.15a25.34,25.34,0,0,0,5.91-10.5,29.9,29.9,0,0,0,1.12-8.78A31.21,31.21,0,0,0,28,17.24,31.78,31.78,0,0,1,28.07,20.67ZM22.84,8.78h0l.13-.27Z"/><path class="cls-1" d="M108.26,87.13,105.21,65s.86,12.65,1.68,22.24a1.39,1.39,0,0,1-.87,1.22,6.77,6.77,0,0,1-1.86.06l-3.56,0h-.68c0-6.33-.09-11.26-.19-15.07-.06-1.68-.12-3.38-.18-5.11l0-1a6.47,6.47,0,0,1,0-.74,2.58,2.58,0,0,1,1.18-.68c1.81-.59,2.92-.75,3.52-.91a5.47,5.47,0,0,0,.74-.2,20.31,20.31,0,0,0-3.37.28,9.73,9.73,0,0,0-1.7.41,2.24,2.24,0,0,0-1,.61,1.12,1.12,0,0,0-.21.73v.5c0,1.36-.06,2.84-.09,4.37-.1,6.67-.22,14-.27,17.67a.8.8,0,0,0,.79.82h1.53l3.55,0h1.38a2.65,2.65,0,0,0,.33,0,2.74,2.74,0,0,0,.77-.22,2.82,2.82,0,0,0,1.65-2.59v-.09Z"/><path class="cls-1" d="M67.28,66.13l.08-.38,0-.18a.94.94,0,0,0,0-.35A.92.92,0,0,0,67.3,65a.85.85,0,0,0-.95-.38l-.09,0-.09,0-.16.1a4.76,4.76,0,0,0-.55.55l-.32.37a.79.79,0,0,0-.47.5h0s0,.07,0,.11h0c-.73,5.38,1,8.35,2.34,9.21a2.2,2.2,0,0,0,1,.38,5.11,5.11,0,0,0,.45.44,5.09,5.09,0,0,1-.32-.42h.29a.74.74,0,0,0,.31-.1l-.31-.09a2.67,2.67,0,0,1-.62-.36c-.05-.1-.11-.2-.16-.32a9.79,9.79,0,0,1-.78-3.33,18,18,0,0,1,.19-3.9C67.06,67.19,67.16,66.66,67.28,66.13Zm-1.48-.82h0S65.8,65.29,65.79,65.32Zm-.82.54Z"/><path class="cls-1" d="M62.16,69.32a2.71,2.71,0,0,0-.12-.7l-.1.89A8.51,8.51,0,0,0,62,72a8.36,8.36,0,0,0,1.51,3.37A7.19,7.19,0,0,0,67.17,78a5.53,5.53,0,0,0,1.22.32l1.14.1a8.14,8.14,0,0,0,6.39-3.32,9.45,9.45,0,0,0,1.15-2,12.74,12.74,0,0,0,.57-2.07,8.46,8.46,0,0,0,0-1.87c-.09-.55-.15-1.07-.27-1.49a45.66,45.66,0,0,0-4.86-11.15v0a.64.64,0,0,0-.87-.23l-.11.08a54.1,54.1,0,0,0-7.24,7.75,14.37,14.37,0,0,0-1.81,3.09,7.78,7.78,0,0,0-.41,1.34,7.78,7.78,0,0,1,.51-1.3,14.35,14.35,0,0,1,2-2.9,55.24,55.24,0,0,1,7.21-6.77,54.28,54.28,0,0,1,4,10.49,11.57,11.57,0,0,1,.31,2.06,6.91,6.91,0,0,1-.06,1l-.26.94A9,9,0,0,1,75,73.8a8.26,8.26,0,0,1-1.09,1.35l-.6.57c-.21.17-.45.29-.67.44a5.32,5.32,0,0,1-1.36.66,5.93,5.93,0,0,1-1.32.31,6.68,6.68,0,0,1-1.41,0,7,7,0,0,1-3.9-1.83,8.14,8.14,0,0,1-1.77-2.66A9.57,9.57,0,0,1,62.16,69.32Z"/><path class="cls-1" d="M91.16,18.55l-2.68-7-.69-1.79a3.4,3.4,0,0,0-1.37-1.62,3.63,3.63,0,0,0-2-.51l-1.94,0L53.79,7.23a.77.77,0,0,0-.72.48h0L49.74,15.9l-6,15a.83.83,0,0,0-.06.3c0,3.81,0,7.42,0,10.85q0,1.27,0,2.51c0,.44,0,.77,0,1.28a3.76,3.76,0,0,0,2.6,3.29,3.89,3.89,0,0,0,.73.15,3,3,0,0,0,.31,0h.35l1.13,0,15.75-.65c9.07-.4,15.41-.74,19.84-1,6.91-.43,9.15-.69,9.81-.79l0,.2,0-.2.25,0h-.24l1.58-6.69c0-2.48.1-5.5.15-8.87ZM71.23,47.37l-21.51.54-1.39,0a6.32,6.32,0,0,1-1.25,0,2.36,2.36,0,0,1-1.65-1.25,2.39,2.39,0,0,1-.25-1V44.29q0-1.37,0-2.71c0-3.55,0-7,.06-10.18l6-14.88,3.07-7.71,28.11-.16h1.94a3.39,3.39,0,0,1,.83.05,2.39,2.39,0,0,1,.71.28,2.44,2.44,0,0,1,1,1.13l.72,1.77,2.85,7,5.12,12.5c0,3.36,0,6.34.07,8.77l-1.4,6.71Z"/><polygon class="cls-1" points="96 31.24 96 31.25 96.01 31.25 96 31.24"/><path class="cls-1" d="M95.86,40.1v0Z"/><path class="cls-1" d="M73.56,82.55a15.16,15.16,0,0,0,12.24-14,15.61,15.61,0,0,0-3.74-11.23l-.1-.09h0a21.35,21.35,0,0,0-11.68-3.7A20.78,20.78,0,0,0,58.5,57.15h0l-.13.12a15.77,15.77,0,0,0-4,10.32,15.41,15.41,0,0,0,2.29,8.25A15.23,15.23,0,0,0,61,80.43a13.88,13.88,0,0,0,4,1.92,12,12,0,0,0,4.39.57,6,6,0,0,0,.92-.1l-.89-.06A13.85,13.85,0,0,1,67,82.4a15,15,0,0,1-7.13-4,14.74,14.74,0,0,1-4.16-9.82,14.56,14.56,0,0,1,3.73-10.17,20.09,20.09,0,0,1,21.64,0,14.55,14.55,0,0,1,3.74,10.16,14.74,14.74,0,0,1-4.16,9.82,15,15,0,0,1-7.13,4,13.84,13.84,0,0,1-2.39.36l-.87.06.87,0A14,14,0,0,0,73.56,82.55Z"/><path class="cls-1" d="M103.3,62.59l-6.11-.06c0-.08,0-.17,0-.25l-.1.1s0,.1,0,.15h-.14l-.1.1h.24C97,68.16,97,76.73,96.85,87l-51-.47c.06-8.38.13-16.59.18-24.23a.66.66,0,0,0-.65-.67h0l-7.39,0c0-10.4.08-19.29.1-25.72V30l6.79-17L48,5a5.41,5.41,0,0,1,5.69-3.52l28.52-.09h3.13c1,0,2.12-.06,2.95,0A5.44,5.44,0,0,1,92.37,4.3c1.44,3.38,2.75,6.71,4,9.74l6.53,15.88c.32,29.05.71,32.36.71,32.36s.06-13.35.15-32.44a.5.5,0,0,0,0-.17L94.19,5.55c-.22-.54-.4-1.06-.66-1.63A6.65,6.65,0,0,0,89.2.35a7.31,7.31,0,0,0-1.9-.22H82L67.78.06,53.87,0a8.05,8.05,0,0,0-3.6.55,6.8,6.8,0,0,0-2.87,2.31,7.51,7.51,0,0,0-.85,1.6L46,6l-1.2,3L36.45,29.53a.82.82,0,0,0-.06.3c0,2.36,0,4.27,0,6,0,6.57,0,15.6,0,26.43a.78.78,0,0,0,.77.78h0l7.36,0c0,7.58.05,15.68.08,23.95a.66.66,0,0,0,.66.67h0l51.53-.21A.45.45,0,0,0,97.3,87h0c0-10.36-.09-18.94-.11-24.37Z"/><path class="cls-1" d="M97.1,62.28l-.24.24h.1l.14-.15S97.1,62.31,97.1,62.28Z"/><path class="cls-1" d="M40.77,65s.86,12.65,1.67,22.24a1.39,1.39,0,0,1-.87,1.22,6.78,6.78,0,0,1-1.87.06l-3.55,0h-.68c0-6.33-.09-11.26-.19-15.07-.06-1.67-.12-3.38-.18-5.11l0-1a6.61,6.61,0,0,1,0-.74,2.58,2.58,0,0,1,1.18-.68c1.81-.59,2.92-.75,3.52-.92a5.58,5.58,0,0,0,.74-.2,20.44,20.44,0,0,0-3.37.28,9.73,9.73,0,0,0-1.7.41,2.24,2.24,0,0,0-1,.61,1.11,1.11,0,0,0-.21.73v.5c0,1.36-.06,2.84-.09,4.37-.1,6.67-.22,14-.27,17.67a.8.8,0,0,0,.79.82h1.53l3.55,0h1.38a2.61,2.61,0,0,0,.33,0,2.74,2.74,0,0,0,.77-.22,2.82,2.82,0,0,0,1.65-2.59v-.09Z"/><path class="cls-1" d="M11.31,76.65l6.11,11.59c-4-.19-7.9-.34-10.14-.34l-5.34,0c2-5,3.34-8.49,4.17-10.88a24.87,24.87,0,0,0,2.52-.13c.71-.07,1.21-.14,1.58-.2A3,3,0,0,0,11,76.5l-1.44,0L8,76.39c-.59,0-1.45-.06-2-.12H5.87a.45.45,0,0,0-.46.26L.06,88.44a.73.73,0,0,0,.65,1h0l6.52.08c2.39,0,6.62-.08,10.91-.17h0a.64.64,0,0,0,.53-1Z"/><path class="cls-1" d="M7.2,67.31h0v0Z"/><path class="cls-1" d="M6.68,74.78a1.65,1.65,0,0,1-.53-.57A9,9,0,0,1,5.5,73c-.31-.71-.46-1.15-.56-1.41a2.47,2.47,0,0,0-.13-.33,5.59,5.59,0,0,0,.1,1,8.26,8.26,0,0,0,.83,2.55,1.49,1.49,0,0,0,.85.75c.47.05.64,0,1,0l1.94.05,4.29.11a.6.6,0,0,0,.61-.58h0v0l.11-4.75,0-1.14a2.21,2.21,0,0,0-.44-1.5,3.15,3.15,0,0,0-1.61-1.07c0-1-.06-1.76-.09-2.38l-.35-6.08v0a.73.73,0,0,0-.74-.69l-3.71.08h0a.65.65,0,0,0-.64.64c-.06,3-.12,6.2-.18,8.81a1.92,1.92,0,0,0-.67.63,5.54,5.54,0,0,0-.48.83,9.69,9.69,0,0,0-.55,1.41,6.5,6.5,0,0,0-.23,1,2.23,2.23,0,0,0,0,.39,2.11,2.11,0,0,1,.06-.38,6.68,6.68,0,0,1,.31-.94,9.72,9.72,0,0,1,.66-1.33,5.44,5.44,0,0,1,.52-.75,1.28,1.28,0,0,1,.82-.53c.26-2.57.58-5.74.86-8.58l2.63.12c0,2.21,0,4.17.1,5.5.05,1,.1,2,.14,3v0a.77.77,0,0,0,.81.73h0A1.52,1.52,0,0,1,13,68.9a8.83,8.83,0,0,1,0,1l0,1.16q0,1.66.08,3.42c-2.29.07-4.11.16-5.53.26A5.63,5.63,0,0,1,6.68,74.78Z"/><path class="cls-1" d="M12.82,52.84s-4.25.7-7,1.24a.76.76,0,0,0-.07,1.48l.07,0c.66.19,1.22.35,1.63.45,1.1.27,3.36.69,5.29,1h.08a.52.52,0,0,0,.6-.42.49.49,0,0,0,0-.13l-.24-3.38-.49,3.06c-1.26-.52-2.64-1.06-3.71-1.42C12.63,53.56,12.82,52.84,12.82,52.84Z"/><path class="cls-1" d="M56.49,43.28q0-.44,0-.91c0-.6,0-1.25,0-1.93-.05-2.49-.12-5.47-.18-8.35s-.09-5.23-.21-7.24a4.18,4.18,0,0,0-.81-1.2,9,9,0,0,0-.71-.71,3.38,3.38,0,0,0-.55-.41.86.86,0,0,0-.35-.11c.31,0,1.26.68,2.17,2.47,0,1.91-.23,4.43-.36,7.19-.14,3-.28,6-.39,8.35C55,41.86,55,43.08,54.92,44c-.07,0-.32,0-.46,0H52.39c0-10.42-.31-16.11-.58-19.18l-.1-1.06c-.1-.32.12-.42.33-.58a7.21,7.21,0,0,1,1-.49c.48-.2.63-.25.61-.25a4.13,4.13,0,0,0-.77.09,5.43,5.43,0,0,0-.87.24,1.77,1.77,0,0,0-.57.33.79.79,0,0,0-.16.22.82.82,0,0,0-.06.29v.3c0,1.68-.1,4-.16,6.41,0,.44,0,.88,0,1.32l-.46-.36-.48-.38h0a12.33,12.33,0,0,0-1.65,2.58c-.42.71-.75,1.29-.75,1.29l.43-.29a1.1,1.1,0,0,0,.05.67S50,33.4,51,32.36c-.09,4.88-.19,9.85-.24,12.46a.8.8,0,0,0,.79.82h2.92a2.68,2.68,0,0,0,1.06-.14,1.62,1.62,0,0,0,1-1.23,3.33,3.33,0,0,0,0-.55C56.5,43.58,56.49,43.43,56.49,43.28ZM54.9,44h0Z"/><path class="cls-1" d="M63.29,43.43q0-.44,0-.9c0-.6,0-1.24,0-1.92-.05-2.48-.12-5.44-.18-8.3C63,31,63,29.63,63,28.41c0-.6,0-1.18,0-1.72,0-.16,0-.22,0-.45a2.38,2.38,0,0,0-.15-.47c-.1-.25-.21-.47-.32-.68a8.31,8.31,0,0,0-1.69-2.5,8.31,8.31,0,0,1,1.46,2.61,2.93,2.93,0,0,1,.35,1.49l-.1,1.72c-.07,1.24-.14,2.56-.21,3.9l-.39,8.3c-.05,1.35-.1,2.51-.13,3.41H59.19c0-10.43-.31-16.11-.58-19.18,0-.36-.07-.71-.1-1.06s.12-.42.33-.57a7.06,7.06,0,0,1,1-.49c.48-.2.63-.25.61-.25a4,4,0,0,0-.77.09,5.49,5.49,0,0,0-.87.24,1.77,1.77,0,0,0-.58.34.72.72,0,0,0-.16.23.93.93,0,0,0,0,.2v.38l-.16,6.44c0,.36,0,.74,0,1.11l-1.1-.22h0a8,8,0,0,0-.18,2.45c0,.66,0,1.2,0,1.2l.24-.36a1,1,0,0,0,.37.48s.33-.83.66-1.7c-.1,4.22-.18,8.62-.21,11.49a.81.81,0,0,0,.8.82h3.33l.31,0a1.59,1.59,0,0,0,1.21-1.06A3.54,3.54,0,0,0,63.29,43.43ZM61.72,44h0S61.67,44,61.72,44Zm0,0h0Z"/><path class="cls-1" d="M60.75,22.59a.55.55,0,0,0-.31-.14A.64.64,0,0,1,60.75,22.59Z"/><path class="cls-1" d="M83.68,42.88l-.13-6.52V36.3L82,22.93s.28,7.34.51,13.47v0c-.11,2.46-.21,4.76-.28,6.52,0,.26,0,.5,0,.74s0,.24,0,.36,0,0,0,.05h-.44L79.6,44c0-10.77-.3-16.64-.58-19.8L79,23.62c-.07,0,.06-.12.2-.19a5.3,5.3,0,0,1,.79-.28l1.08-.3a3.67,3.67,0,0,0,.62-.2s-.29,0-.79,0c-.25,0-.56,0-.92.08a3.34,3.34,0,0,0-1.31.36.59.59,0,0,0-.25.4,1.62,1.62,0,0,0,0,.21v.35q0,.36,0,.74c0,.52,0,1.06,0,1.64,0,1.16-.06,2.42-.09,3.71,0,.57,0,1.14,0,1.73-.15-.24-.33-.52-.56-.85l-.07-.11a.72.72,0,0,0-1.25.1l-1.11-8.12.62,11.16c-.13,2.82-.26,5.6-.36,7.76,0,.64,0,1.23-.07,1.77V44l0,0h-.07l-2.48,0c0-10.77-.3-16.64-.58-19.81l-.05-.58c-.08,0,.07-.12.2-.18a5.15,5.15,0,0,1,.79-.28l1.09-.3a3.49,3.49,0,0,0,.62-.2s-.29,0-.79,0c-.25,0-.56,0-.92.08a3.4,3.4,0,0,0-1.31.35.59.59,0,0,0-.25.39,1.59,1.59,0,0,0,0,.22v.35q0,.36,0,.74c0,.52,0,1.06,0,1.64,0,1.16-.06,2.42-.09,3.71,0,.34,0,.68,0,1l-1-.33-.13,0a.57.57,0,0,0-.57.13l-1.35-8s.35,4.14.75,8.74c-.15,3.11-.31,6.39-.43,9l-.08,2.12c0,.35,0,.69,0,1V44s0,0,0,0h0L66,44c0-10.77-.3-16.64-.58-19.8l-.05-.58c-.07,0,.07-.12.2-.18a5.13,5.13,0,0,1,.79-.28l1.08-.3a3.52,3.52,0,0,0,.62-.2s-.29,0-.79,0c-.25,0-.56,0-.92.08a3.41,3.41,0,0,0-1.31.35.59.59,0,0,0-.25.39,1.56,1.56,0,0,0,0,.22v.35q0,.36,0,.74c0,.52,0,1.06,0,1.63,0,1.16-.06,2.42-.09,3.71,0,.43,0,.88,0,1.32l-1.08-.22h0a8,8,0,0,0-.18,2.44c0,.67,0,1.2,0,1.2l.24-.36a1,1,0,0,0,.37.48s.32-.8.64-1.65c-.1,4.34-.18,8.76-.19,11.44a.82.82,0,0,0,.81.82h3a4.7,4.7,0,0,0,.52,0,1.91,1.91,0,0,0,.46-.12,1.67,1.67,0,0,0,.38-.25,1.55,1.55,0,0,0,.5-.77,1.8,1.8,0,0,0,.06-.46v-.24q0-.48,0-1c0-.67,0-1.38,0-2.12,0-2-.09-4.2-.14-6.41L70.45,36s0,.1,0,.15h0l.08.25a.57.57,0,0,0,.69.38c-.06,3.14-.11,6.07-.12,8a.82.82,0,0,0,.81.82h.72l2.75,0a1.75,1.75,0,0,0,.7-.23,1.58,1.58,0,0,0,.55-.57,1.6,1.6,0,0,0,.21-.78V43.6c0-.55,0-1.15,0-1.77l-.14-6.78c.08-.28.24-.82.41-1.47a14.62,14.62,0,0,0,.2,1.92,1.12,1.12,0,0,0-.57,0l.84,1a.42.42,0,0,0,.49.1C78,39.81,78,42.81,78,44.82a.82.82,0,0,0,.81.82h2.94a3,3,0,0,0,.88-.09,1.59,1.59,0,0,0,1-.91,1.77,1.77,0,0,0,.12-.65v-.36C83.68,43.38,83.68,43.13,83.68,42.88ZM69.89,34.19c0-.08,0-.16,0-.25.08-.27.29-1,.51-1.86l.05,0a7.39,7.39,0,0,0-.15,1.2c0,.37,0,.71,0,1A.83.83,0,0,0,69.89,34.19ZM75.32,44h0Z"/><path class="cls-1" d="M93.73,31.54,92.85,31h0a10.64,10.64,0,0,0-1.25,2.54c-.31.71-.56,1.27-.56,1.27l.38-.3a1.07,1.07,0,0,0,.14.63s2.11-2.38,2.67-3.27Z"/><path class="cls-1" d="M90.4,38.41v0L88.78,22.93s.15,8.21.4,15.54v0C89.1,40.64,89,42.57,89,44l-2.1,0c-.07-.28-.13-.59-.19-.89-.11-.64-.19-1.29-.25-1.91-.09-1.13,0-2.44-.08-3.54,0-1.92-.08-3.87-.13-5.93-.11-3.41-.25-5.79-.39-7.45l-.05-.59s0-.12-.05-.11,0,0,0,0a.51.51,0,0,1,.16-.11,4.63,4.63,0,0,1,.8-.29l1.11-.31a3.73,3.73,0,0,0,.63-.21s-.31,0-.83,0c-.27,0-.59,0-1,.09-.19,0-.39.06-.62.11a2.6,2.6,0,0,0-.36.11c-.12.08-.31.05-.48.46-.09,2-.12,4.41-.2,7.17l0,.87-1.08-.22a7.94,7.94,0,0,0-.18,2.46c0,.66,0,1.19,0,1.19l.23-.36a1,1,0,0,0,.37.48s.32-.8.64-1.66c0,1.93-.08,3.82-.12,5.49,0,.69,0,1.34,0,1.95s.09,1.23.16,1.8a16,16,0,0,0,.26,1.61,3.47,3.47,0,0,0,.29.86,1.08,1.08,0,0,0,.38.42.89.89,0,0,0,.31.13l.19,0h.4l2.92,0h0a.79.79,0,0,0,.78-.79h0c0-1.69-.07-3.93-.11-6.39Z"/><path class="cls-1" d="M45.88,5.69l0,0A23.15,23.15,0,0,1,47.64,2.4,3.63,3.63,0,0,1,47.91,2l0,0A.82.82,0,0,0,47.2.67,36.89,36.89,0,0,0,41.08,2a44.54,44.54,0,0,0-7,3c-2.2,1.14-4.15,2.31-5.58,3.12s-2.35,1.25-2.35,1.25,1-.35,2.46-1,3.54-1.67,5.79-2.62a48,48,0,0,1,7.07-2.37c1.53-.38,3-.63,4.21-.81a22.83,22.83,0,0,0-1,2.09C36,6.15,31.36,7.48,29,8.49a11.86,11.86,0,0,0-2.21,1.12,1.75,1.75,0,0,0-.4.33s.69-.28,1.88-.63S31.09,8.55,33,8.17c3.85-.78,8.65-1.49,12.29-2A.76.76,0,0,0,45.88,5.69Z"/></svg>