<svg id="Layer_1" data-name="Layer 1" xmlns="http://www.w3.org/2000/svg" viewBox="0 0 107.02 118.43"><defs><style>.cls-1{fill:#231f20;}</style></defs><title>coffee_shop</title><path class="cls-1" d="M21.53,28.92a14.79,14.79,0,0,1,3.11,7.65,12.55,12.55,0,0,1,0,2.6,7.11,7.11,0,0,1-.16.93,6.63,6.63,0,0,0,.23-.92,12.4,12.4,0,0,0,.21-2.63,15.14,15.14,0,0,0-2.7-8.13,7.68,7.68,0,0,1-1.59-4.52,13.37,13.37,0,0,1,.81-4.69,25.75,25.75,0,0,1,1.77-3.92,15,15,0,0,0,1.24,5.22,16.74,16.74,0,0,0,1.86,3.22l.5.66a6.67,6.67,0,0,1,.4.58l.19.33.15.3.3.61a12.8,12.8,0,0,1-.28,7.71,37.14,37.14,0,0,1-1.61,4.23C25.09,40,25,40.37,25,40.37a26.24,26.24,0,0,0,2.44-4.06,21.35,21.35,0,0,0,1.7-4.65,11.49,11.49,0,0,0-.06-5.85h0l0-.09a11.14,11.14,0,0,0-1.07-2A20.19,20.19,0,0,1,26.8,21.9a14.83,14.83,0,0,1-1.53-3.65,12.52,12.52,0,0,1-.17-6.08v0a.82.82,0,0,0-1.46-.69h0a26.32,26.32,0,0,0-3.55,7.35,14.26,14.26,0,0,0-.6,5.18A8.62,8.62,0,0,0,21.53,28.92Z"/><path class="cls-1" d="M107,107.88v0a.58.58,0,0,0-.58-.57l-48.31.1,48,.78a5.3,5.3,0,0,1-5.16,5h-.09l-9.49,2c-17.05.32-33.22.65-42.76.93l-27.84.85-4.83-2-.13,0-9.52-2H6.13A4.79,4.79,0,0,1,1.6,109.6a4.87,4.87,0,0,1-.22-.89,1.6,1.6,0,0,1,0-.31c52.07-.3,56.76-1,56.76-1L.63,107.07a.63.63,0,0,0-.63.63H0c0,.16,0,.41,0,.59a4.64,4.64,0,0,0,0,.6,5.49,5.49,0,0,0,.3,1.24A6.13,6.13,0,0,0,6,114.21l9.44,2.1,4.91,2.06a.78.78,0,0,0,.31.06l28-.74,42.79-1.39.13,0,9.5-2.11A6.27,6.27,0,0,0,107,107.88Z"/><path class="cls-1" d="M79.38,77.4a.6.6,0,0,0-.57.38h0c-1.43,3.66-3.81,7-5.71,10.46a.72.72,0,0,0,.28,1,.73.73,0,0,0,.34.09h0c3.71,0,7.13.1,10.38,0a11.71,11.71,0,0,0,10-7.6,11.59,11.59,0,0,0,.64-2.69,23,23,0,0,0,.07-2.9c0-3.81-.06-8.16-.1-12.7,0-2.22,0-4.49-.06-6.75q0-1.69,0-3.37A11.49,11.49,0,0,0,94,50a11.61,11.61,0,0,0-3.74-5.29A11.39,11.39,0,0,0,85,42.33a.43.43,0,0,0-.5.35.4.4,0,0,0,0,.08c0,1.68,0,3.22-.08,4.59A18.14,18.14,0,0,0,85,50.91a15.45,15.45,0,0,1,.49,2.93,15,15,0,0,0-.39-3,17.46,17.46,0,0,1-.42-3.54c.09-1.36.19-2.89.24-4.55a0,0,0,0,1,0,0h0a11,11,0,0,1,8.38,7.59c.67,2,.39,4.27.38,6.53s-.09,4.55-.14,6.74l-.22,12.64a21,21,0,0,1-.12,2.69,10.1,10.1,0,0,1-.6,2.3,10.36,10.36,0,0,1-10.3,6.58l-7.26,0a74,74,0,0,0,4.81-9.2c4.56-.41,7.71-4,7.6-7.38v0h0c-1.43-15.7-2-17.33-2-17.33s.45,7.54,1,17.37C86.47,74.51,82.93,77.44,79.38,77.4Z"/><path class="cls-1" d="M33.33,61.2A15.47,15.47,0,0,0,29.53,66a15.37,15.37,0,0,0,.72,15,15.72,15.72,0,0,0,12.91,7.4A15.72,15.72,0,0,0,58.88,76.37,15.86,15.86,0,0,0,59.12,70l-.31-1.47-.41-1.29a15.38,15.38,0,0,0-1.13-2.44,14.63,14.63,0,0,0-2.93-3.7,14.82,14.82,0,0,0-3.25-2.31,15.23,15.23,0,0,0-5.77-1.7,13.11,13.11,0,0,0-5.93.81,7.59,7.59,0,0,0-1.1.52h0L36.85,59A15.65,15.65,0,0,0,33.33,61.2Zm4.95-2.76L39.77,58a15.6,15.6,0,0,1,4.08-.37,14.72,14.72,0,0,1,11.25,6A14.83,14.83,0,0,1,56.91,67a17,17,0,0,1,.6,1.87,17.55,17.55,0,0,1,.31,1.87,14.34,14.34,0,0,1-1.13,7.33A14.72,14.72,0,0,1,48.32,86a15.28,15.28,0,0,1-5.13.88,14.57,14.57,0,0,1-12-6.44A14.09,14.09,0,0,1,29.5,77a14.83,14.83,0,0,1-.76-3.75A14.74,14.74,0,0,1,33.5,61.39,15.63,15.63,0,0,1,36.88,59Z"/><path class="cls-1" d="M12.32,88.38a77.05,77.05,0,0,0,9.17,12.89c1.28,1.43,2.33,2.51,3.06,3.23l1.13,1.1-1.11-1.12c-.72-.73-1.75-1.83-3-3.28a76.9,76.9,0,0,1-8.94-13A89.07,89.07,0,0,1,4.56,67.55a98.26,98.26,0,0,1-3-24.62c22.11.21,44,.38,56.28.38l23.83,0C81.4,59,78,72,73.47,82.15a74,74,0,0,1-15.54,22.79c-28.85.33-32,.75-32,.75l32.22.17a.49.49,0,0,0,.33-.13c7.68-7.18,14.45-17.56,18.65-29a95.19,95.19,0,0,0,4.66-17.41c.5-2.91.85-5.79,1.09-8.62s.31-5.58.45-8.22a.76.76,0,0,0-.72-.8h0l-24.67-.05-15.67,0L44.09,38c.77-1.53,1.64-3,2.3-4.64l0-.1a2.53,2.53,0,0,0,.23-.67l.16-.25a24.52,24.52,0,0,0,1.68-7.13h0v-.06c0-.6,0-1.22,0-1.86s-.13-1.19-.23-1.72l0-.14a10.71,10.71,0,0,0-.66-2.09,13,13,0,0,0-.9-1.69l-.19-.31-.06-.09a23.43,23.43,0,0,1-3.67-6.72A19.66,19.66,0,0,1,41.88.85V.78A.66.66,0,0,0,40.67.34c-3.06,5.56-5.07,11.9-4.91,16.9A13.8,13.8,0,0,0,37.1,23.1,9.67,9.67,0,0,0,38.34,25l.76,1.25a19.52,19.52,0,0,1,1.63,3.56,19.76,19.76,0,0,1,1.07,5.58,22.26,22.26,0,0,1-1,6.28l-39.67.12a.65.65,0,0,0-.65.64h0A98.64,98.64,0,0,0,3.87,67.74,89.41,89.41,0,0,0,12.32,88.38Zm27.77-61a12.84,12.84,0,0,0-1.41-1.92,3.71,3.71,0,0,0-.36-.38h0a9.56,9.56,0,0,1-1.13-2,13.56,13.56,0,0,1-1.06-5.81C36.2,13,37.9,7.86,40.4,3.14A21.48,21.48,0,0,0,41.31,11a23.31,23.31,0,0,0,3.75,7.22l.17.28A10.26,10.26,0,0,1,46.68,22l0-.14a14.52,14.52,0,0,1,.27,3.24,20.77,20.77,0,0,1-.52,3.53,27.85,27.85,0,0,1-1,3.18l.18-.28A10,10,0,0,0,45,32.92l0-.11c-.71,1.78-1.6,3.4-2.32,5l-.12.25c0-.38.1-.79.12-1.15a16.31,16.31,0,0,0-.51-4.39A18.75,18.75,0,0,0,40.09,27.33Z"/><path class="cls-1" d="M55.53,28.42a7.89,7.89,0,0,1-1.43-4.63c0-2.7,1.61-5.9,3.87-8.44a29.59,29.59,0,0,0,1.32,6.14,11.22,11.22,0,0,0,1.45,2.88,7.21,7.21,0,0,1,1,1.92c.91,2.76.19,5.57-.6,7.81a28,28,0,0,1-1.48,3.32,13.63,13.63,0,0,0-.84-4.15,12.85,12.85,0,0,0-1.88-3.41,8,8,0,0,0-1.13-1.22,1.63,1.63,0,0,0-.29-.22s.23.31.59.86a16.18,16.18,0,0,1,1.3,2.42A13.26,13.26,0,0,1,58.23,40v0a.6.6,0,0,0,1.06.5l.12-.17h0v-.06a26.18,26.18,0,0,0,3.76-7.57,11.61,11.61,0,0,0,.11-7A8.2,8.2,0,0,0,62,23.41a10.26,10.26,0,0,1-1.36-2.46,33,33,0,0,1-1.74-6.7v0a.63.63,0,0,0-1.1-.31c-2.59,3-4.28,6.8-4.08,9.9a7.82,7.82,0,0,0,1,3.49A7.51,7.51,0,0,0,55.53,28.42Z"/></svg>