<svg id="Layer_1" data-name="Layer 1" xmlns="http://www.w3.org/2000/svg" viewBox="0 0 96.61 70.85"><defs><style>.cls-1{fill:#231f20;}</style></defs><title>comfortable_waiting_area</title><path class="cls-1" d="M24.55,14.55a.6.6,0,0,0,.05.84.59.59,0,0,0,.28.13.62.62,0,0,0-.55.63v0a6.21,6.21,0,0,0,1,3.09,5.65,5.65,0,0,0,2.17,1.87,5.77,5.77,0,0,0,2.69.59l-.71-.15a2.92,2.92,0,0,1-.82-.28l-.48-.21-.48-.32A5.13,5.13,0,0,1,26,18.84a4.93,4.93,0,0,1-.51-2.12c1.9.16,3.67.27,4.74.27,1.69,0,3.16,0,4.44-.06a5.22,5.22,0,0,1-1.32,2.84,6.16,6.16,0,0,1-1.89,1.37c-.51.25-.84.33-1,.44a.64.64,0,0,0-.21.15,6,6,0,0,0,2.71-.6,5.63,5.63,0,0,0,2.17-1.87,6.2,6.2,0,0,0,1-3.08.62.62,0,0,0-.57-.67h-.11c-1.7-.06-3.31-.12-4.48-.13l4.52-.13-9.75-.6c3-2.9,6-5.89,7.59-7.6,1.29-1.4,2.45-2.67,3.5-3.84-1.58,10.7-1,11.78-1,11.78l2.86-14A.69.69,0,0,0,37.56.32l0,0c-2.16,2.24-4.13,4.3-5.32,5.58-1.67,1.81-4.75,5.29-7.64,8.59Z"/><path class="cls-1" d="M1.2,14.76C5.34,12.23,10,9.36,13.38,7.2l3-1.44L22,2.9q-1.85,2.61-3.21,4.6c-7.11,6.61-7.48,7.66-7.48,7.66l8.27-6.87.07-.07v0l5.33-7A.7.7,0,0,0,24.11.17h0L15.64,4.3l-3,1.52h0l-.08,0L.24,14.48h0a.53.53,0,0,0-.13.74.54.54,0,0,0,.45.23l10.55-.23Z"/><path class="cls-1" d="M18,21.73h0Z"/><path class="cls-1" d="M30.22,21.73h0Z"/><path class="cls-1" d="M48.28,17.45l0-.07h0v0Z"/><path class="cls-1" d="M56.85,21.36h0Z"/><path class="cls-1" d="M58.12,3.75c.43,2.42,1.33,7,2.2,11.28v0a.57.57,0,0,0,.51.44.62.62,0,0,0-.57.64v0a6.19,6.19,0,0,0,1,3.09,5.64,5.64,0,0,0,2.17,1.87,5.76,5.76,0,0,0,2.69.59l-.71-.15a2.94,2.94,0,0,1-.82-.28l-.48-.21-.48-.32A5.15,5.15,0,0,1,62,18.84a4.94,4.94,0,0,1-.51-2.12c1.9.16,3.67.27,4.75.27,1.69,0,3.16,0,4.44-.06a5.21,5.21,0,0,1-1.32,2.84,6.15,6.15,0,0,1-1.88,1.37c-.51.25-.84.33-1,.44a.64.64,0,0,0-.21.15,6,6,0,0,0,2.71-.6,5.65,5.65,0,0,0,2.17-1.87,6.19,6.19,0,0,0,1-3.09.62.62,0,0,0-.57-.67h-.11c-1.72-.06-3.33-.12-4.51-.13l4.51-.13L61.23,14.6c-.51-4.29-1.08-8.76-1.5-11.14l0-.11c10.46,11.07,12,11.37,12,11.37S63.61,5.41,59,.28a.79.79,0,0,0-1.37.65V1Z"/><path class="cls-1" d="M64.55,1.21l.85,1.53c1.49,2.66,4.54,7.85,7.26,12.47v0a.54.54,0,0,0,.47.27h0a.62.62,0,0,0-.6.65v0a6.19,6.19,0,0,0,1,3.09,5.65,5.65,0,0,0,2.17,1.87,5.77,5.77,0,0,0,2.69.59l-.71-.15a2.94,2.94,0,0,1-.82-.28l-.48-.21-.48-.32a5.15,5.15,0,0,1-1.7-1.94,5,5,0,0,1-.51-2.12c1.9.16,3.67.27,4.75.27,1.69,0,3.16,0,4.44-.06a5.22,5.22,0,0,1-1.32,2.84,6.17,6.17,0,0,1-1.89,1.37c-.51.25-.84.33-1,.44a.64.64,0,0,0-.21.15,6,6,0,0,0,2.71-.6,5.66,5.66,0,0,0,2.17-1.87,6.2,6.2,0,0,0,1-3.09.62.62,0,0,0-.57-.67H83.7c-1.91-.07-3.7-.13-4.89-.14l4.89-.12-10.37-.57c-1.91-3.86-4-8-5.52-10.9C82.18,14.56,83.89,14.69,83.89,14.69S71.46,4.63,65.74.17a.81.81,0,0,0-1.2,1Z"/><path class="cls-1" d="M96,15.5h-.11c-2.1-.08-4.08-.14-5.26-.14h-.37l5.62-.12-10.46-.5c-3-3.5-6.45-7.46-9.14-10.47C94.19,14.62,96.09,14.67,96.09,14.67S79.25,4.16,72.48.12A.82.82,0,0,0,71.37.4a.83.83,0,0,0,.11,1l.76.81C74.88,5,80.42,10.65,85,15.3l0,0a.51.51,0,0,0,.38.15l2.47-.05-2.43.08h-.08a.62.62,0,0,0-.6.65v0a6.19,6.19,0,0,0,1,3.09A6.55,6.55,0,0,0,87,20.51c.2,1.08,0,4.75-.13,10v.05c-.54,8.68.62,23.14-.35,38.82,0,0-21.47-.14-28.46-.09l-18.73,0H8.7C9.39,51.46,10,35.86,10.52,22.12a3.63,3.63,0,0,0,.56.33,7.92,7.92,0,0,0,2.34.66,30.52,30.52,0,0,0,4.43.17,7.16,7.16,0,0,0,4.32-1.36,7.09,7.09,0,0,0,2-2.24,7,7,0,0,0,12.25-.17A6.92,6.92,0,0,0,48.28,20a6,6,0,0,0,1.49,1.19,12.42,12.42,0,0,0,2.2,1,14.25,14.25,0,0,0,4.45.84.37.37,0,0,0,.25-.1l2-1.89a7,7,0,0,0,.89-1.09,5.05,5.05,0,0,0,.31-.56,6,6,0,0,0,3,2.85,7.91,7.91,0,0,0,4.28.56,6.62,6.62,0,0,0,5.16-4.29,6.58,6.58,0,0,0,3.14,3.45,7.36,7.36,0,0,0,3.85.64,15.57,15.57,0,0,0,5.07-.66,3,3,0,0,0,1.71-1.33,2.19,2.19,0,0,0,.18-.48,2.12,2.12,0,0,1-.52.85A4.85,4.85,0,0,1,83,22.1a28.69,28.69,0,0,1-5.27.11,6.11,6.11,0,0,1-5-4.17.37.37,0,0,0-.7,0,6.09,6.09,0,0,1-5.2,4.14,7.38,7.38,0,0,1-3.83-.72,5.15,5.15,0,0,1-2.64-3v0a.42.42,0,0,0-.52-.27c-.06,0-.08.08-.12.11a3.28,3.28,0,0,0,.15-.46,14.76,14.76,0,0,0,.27-1.5v0a.78.78,0,0,0-.34-.78.73.73,0,0,0,.27-.57.77.77,0,0,0-.1-.36l-8-13.9s3.45,7.7,6.23,13.53c-1.33-.05-2.49-.09-3.36-.09l-5.15,0C51.91,2,51.32.75,51.32.75l-3.1,13c-.6-3.34-1.21-6.61-1.6-8.47L45.6.66v0A.74.74,0,0,0,44.21.45l-6.79,13v0l0,0-.2.69.27-.66v0h0c1.09-1.64,4.32-6.54,7-10.79.19,1.16.38,2.18.54,2.95.73,3.49,1.36,6.32,1.91,8.67-2.35.08-4.16.19-5.49.31h.06c-3.61-.3-4.08,0-4.08,0l4,.8h0c-1.09,0-2.56.06-4.15.12h-.05a.66.66,0,0,0-.63.68h0a5.89,5.89,0,0,0,1,3.07,5.75,5.75,0,0,0,2.16,1.9,5.34,5.34,0,0,0,2,.57,5.23,5.23,0,0,0,.79,0,5.25,5.25,0,0,1-4.75-5c1.76.15,3.38.25,4.38.25,1.41,0,2.65,0,3.77,0h0a2.09,2.09,0,0,0,.3.2l.46.23.19.09a5.21,5.21,0,0,1-1.54,2.62,6.65,6.65,0,0,1-1.73,1.12c-.91.39-1.08.49-1.07.52a5.36,5.36,0,0,0,.63,0,5.45,5.45,0,0,0,1.71-.39,5.8,5.8,0,0,0,3.42-3.94v0a.86.86,0,0,0-.3-.81,2.21,2.21,0,0,0-.28-.21l-.43-.25-.34-.2-.07-.06s.11,0,.13.34l-.66-.66,1.46,0a.59.59,0,0,0,.37-.12.69.69,0,0,0,.33.2l.14,0h0l2.22,0-2.2.11h0a.34.34,0,0,0-.33.36h0a6.75,6.75,0,0,0,.15,1l.07.33a8.12,8.12,0,0,1,0-1.29v0a.15.15,0,0,1,.16-.15h0c2.13.23,6.53.69,9.63.89,0,.2-.08.37-.11.48a5.13,5.13,0,0,1-.87,1.69l0,0-.08.08-.15.16-.26.24-.29.23-.21.16h0l-.18.05-.35.11-.33.1-.16.05-.06,0a9.78,9.78,0,0,1-4.81-1.15,4.86,4.86,0,0,1-1.57-1.38l.07.08-.19-.23-.08-.08s0,.09,0,.08h0s0,0,0,0-.08-.12-.05-.06l0,.1,0,.07v.1a4.33,4.33,0,0,0,2,2.42,9.74,9.74,0,0,0,4.67,1.44l-.24,0a.71.71,0,0,0,.29,0l.14,0h.08l.09,0,.18,0,.35-.08.35-.08.17,0,.08,0h0l-.13,0a.66.66,0,0,1-.28-.05l.64-.06.42-.28.24-.18-1.46,1.33a13.69,13.69,0,0,1-4-.83,11.62,11.62,0,0,1-2-.95,4.22,4.22,0,0,1-1.57-1.47A.48.48,0,0,0,48,18.7a.5.5,0,0,0-.21.21A5.93,5.93,0,0,1,36.9,18a.53.53,0,0,0-.66-.35.54.54,0,0,0-.35.35,5.88,5.88,0,0,1-11.19,0,.58.58,0,0,0-.73-.38.6.6,0,0,0-.38.38c-.05.16-.13.31-.2.47A6.91,6.91,0,0,0,24,16.17a.61.61,0,0,0-.28-.56.75.75,0,0,0,.31-.28v0l2.17-3.79c1.25-2.23,3.45-6.33,5.6-10.39v0a.63.63,0,0,0-.92-.81L20.07,7.88,30,2c-2.13,3.43-4.16,6.74-5.25,8.71l-1.9,3.41c-3.4,0-6.22.08-8.56.15C19.8,8.82,20,7.91,20,7.91l-7.64,6.6a.56.56,0,0,0,.35,1H12.7a.62.62,0,0,0-.6.65v0a6.18,6.18,0,0,0,1,3.09,5.65,5.65,0,0,0,2.17,1.87,5.77,5.77,0,0,0,2.69.59l-.71-.15a2.93,2.93,0,0,1-.82-.28L16,21.1l-.48-.32a5.14,5.14,0,0,1-1.7-1.94,4.94,4.94,0,0,1-.51-2.12c1.9.16,3.67.27,4.75.27,1.69,0,3.16,0,4.45-.06a5.22,5.22,0,0,1-1.32,2.84,6.15,6.15,0,0,1-1.88,1.37c-.51.25-.84.33-1,.44a.64.64,0,0,0-.21.15,6,6,0,0,0,2.71-.6,5.65,5.65,0,0,0,2.17-1.87,4.86,4.86,0,0,0,.4-.68A5.92,5.92,0,0,1,17.61,22a25.84,25.84,0,0,1-4.17-.22c-1.32-.21-2.63-.73-2.94-1.77a.63.63,0,0,0-1.24.15v0c0,.08,0,.16,0,.24h0l0,0C8.49,37.75,7.74,55.07,7.1,70a.77.77,0,0,0,.74.8h0l31.41,0c5.31,0,46.94-.31,47.21-.33a.49.49,0,0,0,.46-.46c.84-16.56-.44-30.71,0-39.53a.5.5,0,0,0,0-.09c-1.08-5.39.23-8.86,0-9.94a4.46,4.46,0,0,0,1,.62,5.77,5.77,0,0,0,2.69.59l-.71-.15a2.92,2.92,0,0,1-.82-.28l-.48-.21-.48-.32a5.15,5.15,0,0,1-1.7-1.94,5,5,0,0,1-.51-2.12c1.9.16,3.67.27,4.75.27,1.69,0,3.16,0,4.45-.06a5.22,5.22,0,0,1-1.32,2.84,6.15,6.15,0,0,1-1.89,1.37c-.51.25-.84.33-1,.44a.64.64,0,0,0-.21.15,6,6,0,0,0,2.71-.6,5.65,5.65,0,0,0,2.17-1.87,6.19,6.19,0,0,0,1-3.09A.62.62,0,0,0,96,15.5ZM55.31,21v-.72h0l0,.1a1,1,0,0,1,0,.21A1.05,1.05,0,0,1,55.31,21Z"/><path class="cls-1" d="M90.63,21.73h0Z"/><path class="cls-1" d="M78.39,21.73h0Z"/><path class="cls-1" d="M66.16,21.73h0Z"/><path class="cls-1" d="M67.82,55.22V55h0a.37.37,0,0,1,0,.09.35.35,0,0,1-.17.22.34.34,0,0,1-.21,0l.4-.38a31.09,31.09,0,0,0-.58-4.18A30,30,0,0,0,55.87,33.09c-.48-.36-1-.71-1.45-1s-1-.61-1.42-.88c-.93-.55-1.75-.94-2.55-1.32s-1.46-.64-2.36-.95l-1.38-.45c-.54-.15-1-.27-1.54-.41A30.47,30.47,0,0,0,38,27.25h0a.52.52,0,0,0-.51.52s0,.06,0,.08l.66,4.09v0a.47.47,0,0,0,.45.39A25,25,0,0,1,56,39.71,25.18,25.18,0,0,1,60,45a23.1,23.1,0,0,1,1.17,2.32h0l.3.76c.19.48.45,1.22.71,2.14a24.2,24.2,0,0,1,.7,3.38,2,2,0,0,0,.13.56,2.54,2.54,0,0,0,.29.51,8.48,8.48,0,0,0,.73.86c.48.53,1.11,1.13,1.12,1.7v.4a.44.44,0,1,0,.64-.4.78.78,0,0,1,.26-.31c.16-.13.35-.26.55-.39s.41-.27.63-.44a2.18,2.18,0,0,0,.32-.31,1,1,0,0,0,.19-.44v0C67.84,55.18,67.81,55.24,67.82,55.22Zm-.56.15a.17.17,0,0,1-.1-.07l0,0s-.12.2-.31.33-.38.28-.57.42a7.14,7.14,0,0,0-.59.45l-.09.08a4.72,4.72,0,0,0-.74-1c-.39-.4-.77-.75-1.07-1.12a2.1,2.1,0,0,1-.34-.55,5,5,0,0,1-.13-.62c-.07-.43-.18-.83-.26-1.19a21.61,21.61,0,0,0-1-3.17,14.49,14.49,0,0,0-.64-1.32,2.83,2.83,0,0,0-.17-.28A22.73,22.73,0,0,0,60.11,45,25.39,25.39,0,0,0,39,31.51l-.45-3.27A30.18,30.18,0,0,1,50,30.94,29.48,29.48,0,0,1,66,49.51,30.2,30.2,0,0,1,67.09,55h0v.23h0s0,0,0,0l.08-.07a.21.21,0,0,1,.22,0,.12.12,0,0,1,.05.14A.17.17,0,0,1,67.26,55.38Z"/><path class="cls-1" d="M32.89,62.82A8.18,8.18,0,0,0,38.56,65a8.36,8.36,0,0,0,3.23-.72A8.5,8.5,0,0,0,43.7,63l.61-.57-.64.53a8.43,8.43,0,0,1-2,1.07,7.87,7.87,0,0,1-6.78-.53A7.67,7.67,0,0,1,31.14,57a7.37,7.37,0,0,1,.74-3.3,8.12,8.12,0,0,1,1.54-2.17,7.53,7.53,0,0,1,3.22-1.87A7.66,7.66,0,0,1,40,49.52a7.55,7.55,0,0,1,2.73,1.08l.54.38.53.46a7.73,7.73,0,0,1,.82.91,7.64,7.64,0,0,1,1.54,3.81,8.3,8.3,0,0,1-.2,2.94,9.54,9.54,0,0,1-1.27,2.82,2.89,2.89,0,0,0-.33.55l.55-.59A8.5,8.5,0,0,0,46.08,60a8.35,8.35,0,0,0,.72-3.23,8.49,8.49,0,0,0-.91-3.9,8.4,8.4,0,0,0-1.24-1.77,9.28,9.28,0,0,0-.77-.76,9.58,9.58,0,0,0-.91-.66,8.38,8.38,0,0,0-7.88-.6,8.55,8.55,0,0,0-2.53,1.73,8.42,8.42,0,0,0-2.39,6.28,8.24,8.24,0,0,0,1.3,4.08A8,8,0,0,0,32.89,62.82Z"/><path class="cls-1" d="M38,44.09a.36.36,0,0,1-.26-.09s0,0,0,0l.09.17c.06.14.12.3.18.45a9.79,9.79,0,0,0,.39,1,1.72,1.72,0,0,0,.19.29.91.91,0,0,0,.23.2.68.68,0,0,0,.24.09h.09l.41.06.39.06h.14l.18,0a11.94,11.94,0,0,1,3,1.07l.85.5c.24.16.57.4.84.59.51.42,1.11,1,1.68,1.45a22.51,22.51,0,0,1,3.2,3.35,7,7,0,0,1,1.55,3.91.34.34,0,0,0,.68,0c0-1.64.76-3.09.88-4.24a3.38,3.38,0,0,0-.21-1.94v0h0a16.1,16.1,0,0,0-4-5.83,16.22,16.22,0,0,0-5.55-3.35,16.44,16.44,0,0,0-1.6-.46l-.79-.17-.19,0-.14,0h-.1L40,41.11l-.38-.05h-.15l-.11,0a.72.72,0,0,0-.28.13,1.15,1.15,0,0,0-.24.23,4.54,4.54,0,0,0-.44.74c-.11.22-.22.44-.32.62a1.69,1.69,0,0,1-.15.22l0,0A.49.49,0,0,1,38,43h0c0,.38,0,.74,0,1.1Zm1.19,1.43h0Zm.26-3.77h0s0,0,0,.06,0,0,0,0Zm-.41,1.45.36-.73a3,3,0,0,1,.16-.29l0,0h.11l.38,0a15.58,15.58,0,0,1,6.73,2.49A17.37,17.37,0,0,1,51,48.61c.8,1,1.18,1.68,1.43,2a3.08,3.08,0,0,0,.31.42h0v0h0v0h0a3.44,3.44,0,0,1,.07,2A16.2,16.2,0,0,1,52.27,55a10.47,10.47,0,0,0-.46,1.62A8.07,8.07,0,0,0,50.41,53a22.43,22.43,0,0,0-3.12-3.64c-.57-.55-1.08-1.05-1.68-1.58-.31-.24-.55-.44-.88-.68s-.58-.37-.89-.56a11.77,11.77,0,0,0-3.27-1.25l-.24-.06-.28,0-.48-.07h-.09a1.94,1.94,0,0,1-.1-.21L39.05,44c-.06-.14-.12-.29-.2-.45A3.85,3.85,0,0,0,39.08,43.19Zm-.56,0a.77.77,0,0,0-.38-.16A.54.54,0,0,1,38.52,43.15Zm-.06.83a.54.54,0,0,1-.24.1H38.1A.82.82,0,0,0,38.46,44Z"/><path class="cls-1" d="M60.59,53.55s0,0,0,0v0h0v0s0,0,0,0h0s0,0,0,0a.23.23,0,0,1-.12.17.22.22,0,0,1-.14,0h0a.22.22,0,0,0,.15,0,.22.22,0,0,0,.12-.17,2,2,0,0,1-.47,1.35c-.21.3-.48.62-.76,1a2.58,2.58,0,0,0-.63,1.33h0a.09.09,0,0,1-.18,0,4.37,4.37,0,0,0-.91-2.37A18.79,18.79,0,0,1,56,52.34,21.35,21.35,0,0,0,53.2,46.1l0,0a19.7,19.7,0,0,0-6.88-5.94c-.34-.17-.63-.32-1-.46s-.59-.26-1-.4L43.38,39l-1-.26c-.29-.08-.63-.16-.93-.21l-.89-.15c-.44-.06-.83-.09-1.2-.12l-.2-1-.44-2a26.5,26.5,0,0,1,4.24.51,27.35,27.35,0,0,1,5.11,1.81A27.29,27.29,0,0,1,52,40a24.11,24.11,0,0,1,4.85,5.15,31.84,31.84,0,0,1,3,6h0l.11.45h0l.49,1.53a2.45,2.45,0,0,0,.12.33s-.08-.64-.38-1.91v0l-.06-.42v0h0a27.42,27.42,0,0,0-2.74-6.22h0v0a23.84,23.84,0,0,0-6-6.36c-.62-.44-1.27-.89-1.92-1.27-.35-.2-.6-.38-1-.59l-1-.48a26.49,26.49,0,0,0-4.16-1.46h0A25.61,25.61,0,0,0,38,34.07a.57.57,0,0,0-.57.56.55.55,0,0,0,0,.12l.58,2.75.29,1.37h0a.57.57,0,0,0,.51.45c.5,0,1.05.07,1.56.13l.84.13.42.07.45.1c.61.13,1.19.31,1.85.51.23.06.61.23.92.34s.63.26.95.41a19.12,19.12,0,0,1,6.8,5.48,21.29,21.29,0,0,1,3,6,19.25,19.25,0,0,0,1.74,2.54,4.15,4.15,0,0,1,1,2.18.27.27,0,0,0,.55,0A2.45,2.45,0,0,1,59.46,56c.26-.38.52-.71.72-1a2,2,0,0,0,.41-1.43Z"/></svg>