<svg id="Layer_1" data-name="Layer 1" xmlns="http://www.w3.org/2000/svg" viewBox="0 0 124.02 103.83"><defs><style>.cls-1{fill:#231f20;}</style></defs><title>express_detailing</title><path class="cls-1" d="M60.44,59.16c.36-.72.76-1.37,1-2L62,55.36a9.65,9.65,0,0,0,.16-1.4c.06-.77.1-1.2.1-1.2L62.06,54a10,10,0,0,1-.24,1.37l-.61,1.73c-.27.62-.7,1.23-1.08,1.9l-.16.19A11.22,11.22,0,0,0,61.77,51c.07.32.12.6.19.81a4.47,4.47,0,0,0,.27.89l-.1-1.17A9.35,9.35,0,0,0,62,50.18l-.53-1.82c-.24-.65-.64-1.29-1-2a24,24,0,0,0-1.57-2,12.33,12.33,0,0,0-4.94-3,11.4,11.4,0,0,0-3.08-.58l-.4,0-.44,0-.75.06a7.77,7.77,0,0,0-1.53.2,11.61,11.61,0,0,0-3,1.12,11.13,11.13,0,0,0-2.54,1.75,6.36,6.36,0,0,0-1,1.08c-.31.38-.64.73-.91,1.12A15.89,15.89,0,0,0,39,48.44a12.53,12.53,0,0,0-.64,2.31c-.08.77-.15,1.33-.2,2.09l.19,1.88A13.06,13.06,0,0,0,39,57.06a15.72,15.72,0,0,0,1.24,2.42c.26.39.6.74.91,1.12a6.37,6.37,0,0,0,1,1.08,11.17,11.17,0,0,0,2.54,1.75,11.67,11.67,0,0,0,3,1.11,8.11,8.11,0,0,0,1.58.21l.8.07c.16,0,.2,0,.46,0l.38,0a11.4,11.4,0,0,0,3-.57,12.3,12.3,0,0,0,5-3A23.91,23.91,0,0,0,60.44,59.16Zm-2.65.93a10.37,10.37,0,1,1,0-14.67A10.38,10.38,0,0,1,57.79,60.09Z"/><path class="cls-1" d="M68.76,69.75l-.69-1.19c-1.12-1.9-3.3-5.42-5.39-8.75h0a.61.61,0,0,0-1,0,14.65,14.65,0,0,1-4.54,4.59,11.73,11.73,0,0,1-1.88,1l-.73.33.76-.25a11.58,11.58,0,0,0,2-.76,14.68,14.68,0,0,0,4.82-3.9c1.72,3.38,3.51,6.82,4.58,8.64L67,70c-.87.73-1.68,1.45-2.49,2l-2.33,1.46c-6.7-7.12-7.83-7.32-7.83-7.32l7.22,8.67h0a.61.61,0,0,0,.77.14c1.21-.7,2.46-1.34,3.54-2.06l2.74-2.19a.73.73,0,0,0,.17-.93Z"/><path class="cls-1" d="M72.17,41.63c.45,1.19.95,2.32,1.28,3.41s.42,1.8.61,2.57l-.41.17c-3.62,1.58-6.5,2.88-8.8,4a11.48,11.48,0,0,0-3-6.87c-1-1-1.22-1-1.22-1l.47.68.54.79a4.25,4.25,0,0,1,.6,1.06,14.29,14.29,0,0,1,1.46,6.36.62.62,0,0,0,.62.61.63.63,0,0,0,.22,0h0c3.75-1.51,7.69-3.12,9.77-4l1-.46.07,0a.73.73,0,0,0,.41-.88l-1-3.34c-.46-1.23-1.16-2.49-1.77-3.8a.61.61,0,0,0-.7-.33h0L60.8,43.37Z"/><path class="cls-1" d="M36.37,53.34A.63.63,0,0,0,37.2,53a.65.65,0,0,0,0-.23,14.19,14.19,0,0,1,1.44-6.35l.27-.59.33-.48.53-.78.46-.68-.54.63-.62.73-.39.45-.33.56a14,14,0,0,0-2.08,5.91c-3-1.55-6.06-3.07-7.79-3.82l-.21-.09a26.57,26.57,0,0,1,1.94-6c8.88,1.66,9.85,1.15,9.85,1.15L30,40.79a.62.62,0,0,0-.69.29l0,0a24.64,24.64,0,0,0-2.71,7.48.81.81,0,0,0,.47.88h0l.82.36c1.82.79,5.19,2.16,8.5,3.49Z"/><path class="cls-1" d="M46.51,65.36a14.35,14.35,0,0,1-5.57-3.21,4.33,4.33,0,0,1-.83-.86l-.59-.72L39,59.95l.44.68.51.79a4.49,4.49,0,0,0,.75,1,14.32,14.32,0,0,0,5,3.68c-2.47,2.46-4.92,4.95-6.2,6.4l-.27.3c-1-.66-1.94-1.25-2.75-1.88L34.34,69c4.33-8,4.16-9,4.16-9l-5.6,8.86v0a.6.6,0,0,0,.09.75c1,1,2,2.07,3.05,2.92l2.92,2.05a.73.73,0,0,0,1-.11l.05-.06.75-.83c1.35-1.52,3.76-4.38,6.09-7.18h0a.63.63,0,0,0-.08-.88A.65.65,0,0,0,46.51,65.36Z"/><path class="cls-1" d="M47.45,39.45v0a.54.54,0,0,0,.55.45c2-.08,3.82-.15,5.14-.09a8.37,8.37,0,0,1,2.08.27,2.87,2.87,0,0,0-.52-.19,11.42,11.42,0,0,0-1.54-.33c-1.27-.21-3-.34-4.93-.45-.21-3.34-.47-7-.73-9.47A23.67,23.67,0,0,1,51,29.33a25.09,25.09,0,0,1,2.6.1c1.21,9.58,2,10.37,2,10.37l-.71-11.13a.65.65,0,0,0-.54-.6h-.05a22.53,22.53,0,0,0-7.4,0l-.5.09a.81.81,0,0,0-.66.9h0C46.13,31.45,46.83,35.71,47.45,39.45Z"/><path class="cls-1" d="M59.58,52.15a1,1,0,0,0-.16-.6l0-.05v0l-.09-.11a1.19,1.19,0,0,0-.51-.3,1,1,0,0,0-.7.05,1.17,1.17,0,0,0-.52.46,1.59,1.59,0,0,0-.17.37l-.29.15a.74.74,0,0,0-.3.23,1.76,1.76,0,0,0-.11.23l-.1.27a.65.65,0,0,0,.38.83h0a1.27,1.27,0,0,0,.36.06l0,0h.13a.77.77,0,0,0,.06.13.85.85,0,0,0,.7.37.94.94,0,0,0,.47-.12L58.8,54l.05,0,0,0h0l.08-.09,0-.05a1,1,0,0,0,.17-.56.79.79,0,0,0-.11-.33h0A.87.87,0,0,0,59.58,52.15Zm-.81.36h0Zm-.62-.63s0,.08-.08.12v0C58.11,51.89,58.16,51.85,58.15,51.88Z"/><path class="cls-1" d="M51.74,53.6a5.63,5.63,0,0,0-.95-.89c-.07-.23-.13-.46-.19-.72a6.1,6.1,0,0,0-.67-1.72,1.45,1.45,0,0,0-1.12-.69,1.37,1.37,0,0,0-.71.17,1.87,1.87,0,0,0-.34.25,1.68,1.68,0,0,0-.47.74,1.37,1.37,0,0,0,.07,1,2.13,2.13,0,0,0,.75.83,5.74,5.74,0,0,0,1.18.6,8.69,8.69,0,0,0,1.49.43h0v0a3.76,3.76,0,0,0,.49.47,1.91,1.91,0,0,1-.2-.44l.42,0A.51.51,0,0,0,51.74,53.6Zm-2.63-2.2,0,0Z"/><path class="cls-1" d="M51.89,46.88h0l0,0,0-.05.08-.1a1.09,1.09,0,0,0,.14-.3,1,1,0,0,0-.06-.7,1.13,1.13,0,0,0-.44-.5.65.65,0,0,0-.42-.58l0,0a1.27,1.27,0,0,0-.36-.05l0,0h-.12a.78.78,0,0,0-.06-.13.85.85,0,0,0-.7-.37,1,1,0,0,0-.47.11,1.14,1.14,0,0,0-.21.16l-.09.1h0l0,0A1,1,0,0,0,49,45a.84.84,0,0,0,.37.7.9.9,0,0,0,.46.16l0,0a.71.71,0,0,0,.18.12c0,.13.08.27.12.38a.15.15,0,0,0,.09.09,1.07,1.07,0,0,0,.05.2.86.86,0,0,0,.74.48A1,1,0,0,0,51.7,47l.09-.06Zm-1.18-.52h0v0S50.72,46.37,50.71,46.36Z"/><path class="cls-1" d="M58,46.62a8.25,8.25,0,0,1,.66,1L59.31,49c.2.52.3,1.14.47,1.76a20.29,20.29,0,0,1,.14,2,9.7,9.7,0,0,1-1.33,4.32A8.89,8.89,0,0,1,57.1,59l-.21.23a1.65,1.65,0,0,0-.22.15l-.48.36a6,6,0,0,1-1,.67,8.73,8.73,0,0,1-2.19.85,7,7,0,0,1-2,.28l.21-.08a1.17,1.17,0,0,0,.22-.16l.08-.1h0l0,0a1,1,0,0,0,.17-.55.85.85,0,0,0-.37-.7.9.9,0,0,0-.46-.16l0,0a.67.67,0,0,0-.18-.12c0-.13-.08-.26-.12-.37s0,0-.07,0a1.1,1.1,0,0,0-.08-.27.87.87,0,0,0-.75-.47,1,1,0,0,0-.6.16L49,58.7l-.09.08h0l0,0,0,.05-.08.1a1.05,1.05,0,0,0-.08,1,1.14,1.14,0,0,0,.44.51.66.66,0,0,0,.41.57l0,0a1.3,1.3,0,0,0,.37.06l-.05,0H50a.64.64,0,0,0,.05.13.89.89,0,0,0,.63.35,13.42,13.42,0,0,1-2-.23,12.71,12.71,0,0,1-1.8-.66,9.27,9.27,0,0,1-1.42-.85l-1.14-.94a9.22,9.22,0,0,1-2.5-5.56.65.65,0,0,0,.35.32h0a1.27,1.27,0,0,0,.36.06l0,0h.13a.9.9,0,0,0,.05.12.85.85,0,0,0,.7.37.94.94,0,0,0,.48-.12L44,54,44,54l0,0h0l.08-.09,0-.05a1,1,0,0,0,.17-.56.85.85,0,0,0-.37-.7.91.91,0,0,0-.46-.16l0,0a.72.72,0,0,0-.18-.12,3.7,3.7,0,0,0-.12-.37.15.15,0,0,0-.09-.08,1.09,1.09,0,0,0-.06-.21.87.87,0,0,0-.74-.47.83.83,0,0,0-.44.09v-.05c.17-.59.32-1.19.5-1.73s.47-1,.74-1.46l1.06-1.35c.28-.28.73-.64,1.07-.94a8.94,8.94,0,0,1,4.52-1.84,9.09,9.09,0,0,1,3.51.21l.68.15.56.24,1,.39c.55.27.9.54,1.19.69a3.14,3.14,0,0,0,.7.34l-.74-.63a8,8,0,0,0-.89-.71l-1.39-.77a18.12,18.12,0,0,0-1.78-.61,19.71,19.71,0,0,0-2.13-.29,10.31,10.31,0,0,0-4.71,1.13,9.48,9.48,0,0,0-2.17,1.47l-.26.21-.25.29-.41.48a6.56,6.56,0,0,0-.79,1,9.78,9.78,0,0,0-1.14,2.47,9.33,9.33,0,0,0-.47,2.54A10,10,0,0,0,50.83,63a9.37,9.37,0,0,0,2.54-.48,9.77,9.77,0,0,0,2.42-1.11,6.74,6.74,0,0,0,1.06-.82l.51-.43c.1-.09.13-.1.3-.26l.19-.25a9.6,9.6,0,0,0,1.43-2.11,10.26,10.26,0,0,0,1.14-4.74,20.3,20.3,0,0,0-.29-2.13c-.22-.64-.36-1.26-.61-1.78l-.75-1.36a8.05,8.05,0,0,0-.73-.92l-.65-.77ZM42.71,51.9h0l0,0S42.68,51.87,42.71,51.9Zm7.42,7.42h0l0,0S50.09,59.27,50.13,59.32Z"/><path class="cls-1" d="M56.78,52.34h0l0,0Z"/><path class="cls-1" d="M106.32,9.31c.61,1.39,1.09,2.48,1.09,2.48l-.16-.92c.5.68.74.71.74.71s-1.67-6.25-2.38-8.28h0l-.86.3-.69.25A44,44,0,0,0,106.32,9.31Z"/><path class="cls-1" d="M115.16,12.74l-2.48,1.09.92-.16c-.68.5-.71.74-.71.74s6.25-1.66,8.28-2.38l-.18-.5-.37-1A44.22,44.22,0,0,0,115.16,12.74Z"/><path class="cls-1" d="M105.16,16.49s-6.26,1.66-8.29,2.38l.18.5.37,1a44.16,44.16,0,0,0,5.47-2.26l2.48-1.09-.92.16C105.13,16.73,105.16,16.49,105.16,16.49Z"/><path class="cls-1" d="M111.73,21.58c-.61-1.39-1.09-2.47-1.09-2.47l.16.92c-.5-.68-.74-.71-.74-.71s1.67,6.25,2.38,8.28L114,27h0A44.2,44.2,0,0,0,111.73,21.58Z"/><path class="cls-1" d="M109.83,17.82l-6.52,9.73,3.94-11a.64.64,0,0,0-.25-.75h0l-6.91-4.55,7.86,2.62a.79.79,0,0,0,.92-.33l4.95-7.89c-1.1,3.45-2,6.39-2.79,8.87v0a.42.42,0,0,0,.18.48C122.56,21.83,124,22.27,124,22.27l-12-7.86,4.59-13.25.1-.16,0,0,.05-.15a.62.62,0,0,0-1.1-.54h0l-.09.13,0,0,0,.14-7.54,11.61L94.47,7.59h0a.82.82,0,0,0-.7,1.47l12,7.56-4.38,13.46h0a.62.62,0,0,0,1.12.52l7.61-12.2,13.68,4.42-13.87-5A0,0,0,0,0,109.83,17.82Z"/><path class="cls-1" d="M76.18,30.2h0C75,29,73.84,27.81,72.58,26.75S70,24.8,68.78,23.95l0,0h0c-1.47-.83-3-1.62-4.42-2.25s-3-1.11-4.31-1.55H59.9A38.55,38.55,0,0,0,51.24,19,38,38,0,0,0,42.67,20h-.07A33.94,33.94,0,0,0,20.45,39a33.28,33.28,0,0,0,7,37.16,32.58,32.58,0,0,0,9.76,6.65,31.31,31.31,0,0,0,7.3,2.22,29.22,29.22,0,0,0,4.32.43,14,14,0,0,0,2.41-.08s.68,0,1.91,0a32.31,32.31,0,0,0,5.28-.66,33,33,0,0,0,26.1-30.55,33.26,33.26,0,0,0-1.87-13,35.38,35.38,0,0,0-6.45-11ZM83.57,54A32.29,32.29,0,0,1,80.8,66.12,32.51,32.51,0,0,1,53.17,85.35c-1.25.08-1.92.07-1.92.07h0a28,28,0,0,1-2.8-.14A32.4,32.4,0,0,1,31.8,27.11,33,33,0,0,1,43,21.63a36.22,36.22,0,0,1,8.2-1,37.9,37.9,0,0,1,8.3,1c1.33.41,2.67.84,4.08,1.42s2.81,1.31,4.34,2.15c1.23.82,2.46,1.65,3.67,2.63a48.19,48.19,0,0,1,3.53,3.29,34.18,34.18,0,0,1,6.34,10.4A32.17,32.17,0,0,1,83.57,54Z"/><path class="cls-1" d="M14.57,17.1h0Z"/><path class="cls-1" d="M15.61,18.2h0Z"/><path class="cls-1" d="M101.64,46.94l-.17-1.34s.05.46.15,1.34.21,2.18.26,3.85A50.47,50.47,0,0,1,72.45,98.23a49.93,49.93,0,0,1-56.88-80L15,17.7a.45.45,0,0,1,.43-.42l.26.8v0l-.08.11h0l0,0,0,0h0l0,0a49.85,49.85,0,0,1,30-14.77,50.1,50.1,0,0,1,41.83,15,51,51,0,0,1,8.2,11.11,53.1,53.1,0,0,1,5.07,13.3l.64,2.89s-.13-1-.46-2.77a51.86,51.86,0,0,0-2.09-7.57A51,51,0,0,0,14.62,17l.4,1.23a.86.86,0,0,1-.21-.06l-.32-1,0,0,.07-.09h0l0,0,0,0h0A51,51,0,0,0,.5,60,50.62,50.62,0,0,0,6.34,77.43,51.41,51.41,0,0,0,22.07,94.8a50.9,50.9,0,0,0,79.88-44C101.88,49.11,101.75,47.81,101.64,46.94Z"/><path class="cls-1" d="M66.27,30a27.22,27.22,0,0,0-15-4.64,27.28,27.28,0,0,0-13.53,3.72,28.33,28.33,0,0,0-9.11,8.43A26.58,26.58,0,0,0,24.32,57,26.75,26.75,0,0,0,39,76.67a25.2,25.2,0,0,0,6.36,2.09,23.09,23.09,0,0,0,3.78.39,10.66,10.66,0,0,0,2.1-.09,23.7,23.7,0,0,0,2.7-.09,26.19,26.19,0,0,0,7.12-1.62A26.72,26.72,0,0,0,76.93,60.59a26.88,26.88,0,0,0-5.72-26.32A27.28,27.28,0,0,0,66.27,30Zm9.88,30.38A26.19,26.19,0,0,1,53.93,78.89a23.76,23.76,0,0,1-2.69.16h0a23.81,23.81,0,0,1-2.69-.16A26.24,26.24,0,0,1,26.33,60.35,25.75,25.75,0,0,1,26,46.86a26,26,0,0,1,6.4-11.58,26.8,26.8,0,0,1,9.83-6.58A25.5,25.5,0,0,1,51.28,27a26.23,26.23,0,0,1,14.19,4.26,26.19,26.19,0,0,1,4.73,4A25.74,25.74,0,0,1,76.5,46.85,26.09,26.09,0,0,1,76.15,60.35Z"/><path class="cls-1" d="M41.32,25.06c0-.26,0-.52,0-.79.06-.06.11-.08.12-.1h0l-.05,0-.07,0,0,0,0,0h0A30.26,30.26,0,0,0,21.39,58.82a30.15,30.15,0,0,0,3.8,9.75,30.26,30.26,0,0,0,48.54,4.35,30.13,30.13,0,0,0,6.76-13,29.18,29.18,0,0,0,.35-12.13,32.2,32.2,0,0,0-2.56-7.9,28.33,28.33,0,0,0-1.45-2.71A28,28,0,0,1,78.22,40a32.08,32.08,0,0,1,2.37,7.91,28.86,28.86,0,0,1-.6,12A29.34,29.34,0,0,1,45.39,81.17a29.14,29.14,0,0,1-12-5.69,29.78,29.78,0,0,1-6.84-7.77,28.89,28.89,0,0,1-1.13-28A29.39,29.39,0,0,1,41.72,25.37l-.17-.5v.35A.69.69,0,0,1,41.32,25.06Z"/><path class="cls-1" d="M74,33.27A31,31,0,0,0,63.83,25.4h0l0,0a40.14,40.14,0,0,0-7.14-2.32h-.06c-1.05-.11-2.1-.27-3.23-.35s-2.23-.1-3.4-.12h0c-1.36.14-2.75.24-4.15.49a35.63,35.63,0,0,0-4.2,1.05v.7a3.31,3.31,0,0,1,.25.51h0l.05,0,.07,0,0,0h0a34.25,34.25,0,0,1,4.07-1.08c1.34-.26,2.66-.37,3.92-.53,1.16,0,2.3,0,3.37.05s2.11.19,3.1.27a40.38,40.38,0,0,1,7,2.11,32.46,32.46,0,0,1,7.81,5A33.28,33.28,0,0,1,75,34.91c.8.92,1.22,1.54,1.47,1.88l.33.43-.66-1.07A30.46,30.46,0,0,0,74,33.27Z"/><path class="cls-1" d="M41.55,24.87v0l0-.05Z"/></svg>