<svg id="Layer_1" data-name="Layer 1" xmlns="http://www.w3.org/2000/svg" viewBox="0 0 123.06 121.66"><defs><style>.cls-1{fill:#231f20;}</style></defs><title>hand_washing</title><path class="cls-1" d="M67.8,40.52h0S67.79,40.52,67.8,40.52Z"/><path class="cls-1" d="M35.38,104l.1,0,.07-.07Z"/><polygon class="cls-1" points="66.81 41.79 66.81 41.79 66.81 41.79 66.81 41.79"/><path class="cls-1" d="M67.29,41.22l0,0v-.05l-.06.1Z"/><path class="cls-1" d="M67.8,40.52h0Z"/><path class="cls-1" d="M98.1,99.66c-.58-1.09-1.19-2.1-1.76-3.11a26.93,26.93,0,0,1-4-11.68c-.21-3.72,1.79-6.49,2.92-8.9A17.46,17.46,0,0,0,97,70a18.62,18.62,0,0,0,.11-2.21A18.2,18.2,0,0,1,97,69.94a17.35,17.35,0,0,1-1.78,5.94c-1.13,2.38-3.18,5.13-3,8.89s1.57,7.78,3.83,11.8c1.06,2,2.57,4.06,3,6.6a5.86,5.86,0,0,1-.79,3.72A13.6,13.6,0,0,1,95.73,110a6.07,6.07,0,0,1-3.6,1.77,7.57,7.57,0,0,1-4-1.06c-2.5-1.32-4.85-3.12-7.67-4.16a16.74,16.74,0,0,0-9-.56A19.07,19.07,0,0,0,67,107.42a31,31,0,0,1-4.36,1.76,23,23,0,0,1-9.45.43,17.84,17.84,0,0,1-4.59-1.42c-1.09-.49-2.19-1-3.34-1.5a14.67,14.67,0,0,0,7.37-3.8c2.27-2.25,4.53-4.45,6.79-6.74l0,0L75.69,80l4-4,2-2a7.72,7.72,0,0,0,1.85-2.32,5.8,5.8,0,0,0-4.34-8.22A22,22,0,0,0,80.87,61a22.94,22.94,0,0,0,1.28-2.8l1.1-1.09,0,0a.55.55,0,0,0,0-.78l0,0c-.13-.12-.27-.22-.41-.33A6.92,6.92,0,0,0,83,54.7a4,4,0,0,0-.19-1.25,2.74,2.74,0,0,0-.35-.67l-.17-.21a3.11,3.11,0,0,0-.26-.24,6.24,6.24,0,0,0-3-1.44A8.78,8.78,0,0,0,79.7,49a11.68,11.68,0,0,0,.4-2.76.69.69,0,0,0-.09-.36v0l-.64-1.11a4,4,0,0,0-.41-.64l-.44-.48-1.68-1.74a.73.73,0,0,0-.54-.22l-2.1,0c-.35,0-.64,0-1,.06a6.45,6.45,0,0,0-1,.26L72,42a10.63,10.63,0,0,0-1.08.59,4.77,4.77,0,0,0-.38-1.26,5.89,5.89,0,0,0-1.46-2.09,7.17,7.17,0,0,0-4.44-1.54l-.17,0a6.51,6.51,0,0,0-3.75,1.87l-2.57,2.5-4.64,4.53-.94.92a7,7,0,0,0-.4-1.18c-.11-.23-.23-.44-.36-.66a6.15,6.15,0,0,0-.46-.62l-.21-.24a3.63,3.63,0,0,0-.39-.33,4.9,4.9,0,0,0-.7-.4,15.3,15.3,0,0,0-5.35-1.08.74.74,0,0,0-.55.21l0,0L29.93,57.49,28.22,59.2l-.86.86-.25.29-.17.22-.37.46-3,3.67-5,6.2a6.4,6.4,0,0,0-.4-.54,2.43,2.43,0,0,1-.52-1.23,17.26,17.26,0,0,1,0-3.25A19.36,19.36,0,0,1,19,59.58a38.47,38.47,0,0,0,2.32-6.24,24.88,24.88,0,0,0,.56-6.53,16.53,16.53,0,0,0-1.69-6.19c-.9-1.89-2-3.58-3-5.26s-1.68-3.39-1.43-5A7.81,7.81,0,0,1,18.42,26l-.48-.52.46-.37.39.58a5.64,5.64,0,0,1,1.34-.87,5.3,5.3,0,0,1,.67-.25,6.06,6.06,0,0,1,.71-.14,5,5,0,0,1,.7,0,7.56,7.56,0,0,1,2.49.69c1.94,1,3.78,2.21,5.7,3.22l.32-.57.13.1,0,0-.27.51h0l0,0,.07,0,.29.14.57.27c.4.18.77.33,1.16.49l.23-.61.38.16-.18.61c.64.19,1.35.42,2,.55s1.38.2,2,.26h.06A21.27,21.27,0,0,0,45,29.1a56,56,0,0,1,6.62-2.56A23.1,23.1,0,0,1,58.14,26a17.73,17.73,0,0,1,6.06,1.26,49,49,0,0,0,5.63,2.28,20.94,20.94,0,0,0,5.73.71c3.71,0,6.85-1.61,9.49-3.22A16.1,16.1,0,0,0,89.7,32.3a21.88,21.88,0,0,0,5.53,3.07,25.51,25.51,0,0,0-2.34,17.17,29.89,29.89,0,0,0,2,5.55,23.07,23.07,0,0,1,2.14,8.58c0,.71.07,1.07.07,1.07s0-.81-.08-2.38a21.64,21.64,0,0,0-1.55-6.63c-.54-1.37-1.23-2.84-1.75-4.5a20.74,20.74,0,0,1-.93-5.57,25.07,25.07,0,0,1,3.1-13.24.41.41,0,0,0-.15-.55l-.06,0a21.36,21.36,0,0,1-5.6-3.17,15,15,0,0,1-4.53-5.4.45.45,0,0,0-.59-.23l0,0A26.75,26.75,0,0,1,80,28.54a13.64,13.64,0,0,1-5.57.71,17.89,17.89,0,0,1-5.73-1.16c-1.85-.71-3.67-1.79-5.76-2.41a21.23,21.23,0,0,0-6.45-.83,21.23,21.23,0,0,0-6.57,1c-2.15.69-4.1,1.78-6.16,2.43a20.48,20.48,0,0,1-6.43.92c-.64-.07-1.31-.14-1.88-.25s-1.24-.33-1.92-.54l.09,0-.52-.2.08,0c-.75-.29-1.41-.61-2.22-1l.06,0c-1.91-1-3.7-2.26-5.76-3.29h0a8.78,8.78,0,0,0-2.83-.8h-.1a5.54,5.54,0,0,0-.83,0h-.11a6.33,6.33,0,0,0-3.29,1.46l.35-.11a2.2,2.2,0,0,0-1,.72l.14-.19a11.87,11.87,0,0,0-2.16,2.63,6.61,6.61,0,0,0-1,3.39c0,2.45,1.3,4.43,2.35,6.27a33.25,33.25,0,0,1,2.85,5.57,14.41,14.41,0,0,1,.84,6,20.09,20.09,0,0,1-1.07,6c-.65,1.89-1.66,3.73-2.31,5.77a22,22,0,0,0-1,6.2A11.08,11.08,0,0,0,16.26,70a4.25,4.25,0,0,0,.85,1.54,3.34,3.34,0,0,1,.6,1.07.76.76,0,0,0,1,.47.77.77,0,0,0,.34-.24l2.21-2.72-4.49,16.5L.15,103.21a.52.52,0,0,0,0,.73h0l17.67,17.58a.45.45,0,0,0,.64,0c6.4-6.41,12.24-12.22,17.08-17.2a11.64,11.64,0,0,0,1.52.66h0a1.32,1.32,0,0,0-.55.31l-.15.13s0,0,0,.09a1.48,1.48,0,0,0-.1.51l.15.07.25.18a1.55,1.55,0,0,0,.79.31h.06a.82.82,0,0,0,.76-.87.78.78,0,0,0-.15-.39,13.87,13.87,0,0,0,8-.53,14.86,14.86,0,0,0,4-2.2A30.73,30.73,0,0,0,52.93,100l4.95-5L82.57,70.45a4,4,0,0,1-.21.71,6,6,0,0,1-1.53,2l-2,2-4,4L58.64,95.37l0,0-6.69,6.75A13.7,13.7,0,0,1,43.85,106a.6.6,0,0,0-.54.65.61.61,0,0,0,.42.51A37.48,37.48,0,0,1,48.18,109,18.79,18.79,0,0,0,53,110.42a25.34,25.34,0,0,0,4.91.25,20,20,0,0,0,4.84-.74c3.18-.93,5.75-2.78,8.71-3.28a16.35,16.35,0,0,1,8.68.38c2.74,1,5.08,2.68,7.64,4A8.48,8.48,0,0,0,92,112.22a6.34,6.34,0,0,0,3.91-1.82,14.27,14.27,0,0,0,2.59-3.18,6.36,6.36,0,0,0,.9-3.94A10.52,10.52,0,0,0,98.1,99.66ZM30.87,27.87ZM77.29,63.64h0a.76.76,0,0,0,0,1.07.77.77,0,0,0,.59.2,4.41,4.41,0,0,1,4,1.81,4.21,4.21,0,0,1,.7,1.64,14.52,14.52,0,0,0-2-1.22,9.08,9.08,0,0,0-3.39-1,2.57,2.57,0,0,0-1,.15,1.61,1.61,0,0,0-.5.3l-.33.29L74,68l-2.7,2.4L60.44,80.09l0-.29L79.05,61.24A14.07,14.07,0,0,1,77.29,63.64Zm0-19,.4.43.08.09,0,0,.16.26.56,1a10.43,10.43,0,0,1-.3,2.12,5.38,5.38,0,0,1-1,2.17l0,0a.76.76,0,0,0-.2.42l0,.26a.78.78,0,0,0,.67.88h.1A5,5,0,0,1,81,53.38a1.65,1.65,0,0,1,.51,1.56,16.43,16.43,0,0,0-2.33-1.15,6.76,6.76,0,0,0-2.46-.51,2.16,2.16,0,0,0-1.46.55l-.83.76-6.83,6.26-.9.83,2.3-2.46,6.91-7.4.85-.91.45-.48.1-.12a2.89,2.89,0,0,0,.17-.26,2.18,2.18,0,0,0,.17-.44,5.15,5.15,0,0,0-.3-2.86,14.37,14.37,0,0,0-1.82-3.53H76Zm-6.24-.11a5.26,5.26,0,0,1,1-.7L48.64,67.17l-.52-.52L58.71,56.07,70,44.72a.8.8,0,0,0,.24,0h.09l.25,0a.8.8,0,0,0,.46-.22ZM27.36,62.57l.8-1,.21-.26.15-.17.44-.44,3.52-3.51L45,44.71a16,16,0,0,1,2.12.26,4,4,0,0,0-2.66.74,8.28,8.28,0,0,0-1,.93l-7.19,7.22L26.14,64.07ZM62,90.61,57.87,95l-5,5a29.43,29.43,0,0,1-2.79,2.59,14.74,14.74,0,0,1-4,2.14,13,13,0,0,1-10.36-.53h0l-.21-.1-.15.15h-.07l0,0c-4.94,5-10.77,10.69-17.17,17L.74,103.58,17.46,87.11a.28.28,0,0,0,.07-.13l5-17.84L37.08,54.71l7.24-7.17a3.62,3.62,0,0,1,1.81-1.23,2.84,2.84,0,0,1,2,.25,3.37,3.37,0,0,1,.41.27l.23.21a.58.58,0,0,1,.11.13,3.6,3.6,0,0,1,.39,1,10.58,10.58,0,0,1,.31,2.08L39,60.75a.66.66,0,0,0,0,.93.69.69,0,0,0,.28.17,13.21,13.21,0,0,1,2.4.8.66.66,0,0,0,.8-.11h0l12-12L60.11,45l2.69-2.68a2.94,2.94,0,0,1,2.59-1.19,5.48,5.48,0,0,1,.73.22,2.43,2.43,0,0,1,.61.37h0l0,0h0l.26-.29h0v0l0-.06s0-.09,0-.22l.06-.1c.15-.11.18,0,.18,0a.22.22,0,0,1,0,.07l.4-.68a4.08,4.08,0,0,0-.94-.58l-.06,0a7.28,7.28,0,0,0-1.08-.32l-.18,0H65a3.85,3.85,0,0,0-.51,0,4,4,0,0,0-1.09.32,5.17,5.17,0,0,0-1.68,1.29L59,43.85l-5.56,5.59L41.83,61.15a8.9,8.9,0,0,0-.92-.31L50.73,51v0a.67.67,0,0,0,.2-.5,11.51,11.51,0,0,0-.39-2.64A4.75,4.75,0,0,0,50,46.46a1.92,1.92,0,0,0-.31-.37l-.24-.21a4.45,4.45,0,0,0-.66-.44c-.1-.05-.21-.09-.32-.13a7.71,7.71,0,0,1,1.08.42,4.38,4.38,0,0,1,1.63,3.55v0a.82.82,0,0,0,1.4.57l2.09-2,4.42-4.32L61.66,41l.32-.31.36-.33A6,6,0,0,1,63,39.9a5,5,0,0,1,1.66-.53,5.69,5.69,0,0,1,3.22,1,2.93,2.93,0,0,1,.31.28,4.27,4.27,0,0,1,.31.36l.25.36.08.16-.95-.94,0,0,0,0,0,0,0,0L67,41.88l-.1,0,.36-.61-.38.45-.09.11h0l0,0,.09.09.17.17.34.33.65.64.65.65L57.54,54.91,46.39,66.06a.82.82,0,0,0,0,1.16l1.67,1.67a.82.82,0,0,0,1.16,0h0L74.1,44A12.23,12.23,0,0,1,76,47.77a4.08,4.08,0,0,1,.16,1.11,1.32,1.32,0,0,1-.07.4.2.2,0,0,0,0,.07l-.09.1-.11.12-1.82,2L67,59.17,53.74,73.45a.73.73,0,0,0,1,1L69.1,61.22l6.61-6.13.41-.37a.57.57,0,0,1,.22-.12,1.93,1.93,0,0,1,.8,0,7.42,7.42,0,0,1,1.89.53,14.53,14.53,0,0,1,2.24,1.18c0,.05,0,.11,0,.16a14.91,14.91,0,0,1-.53,1.51L59.55,79.27a.5.5,0,0,0-.14.39l.17,1.48a.48.48,0,0,0,.52.42.49.49,0,0,0,.27-.12L72.3,70.65l2.64-2.39,1.26-1.14a1.76,1.76,0,0,1,1.34-.23,11.68,11.68,0,0,1,5.17,2.46v0C71.66,80.61,65.46,87,62,90.61Z"/><path class="cls-1" d="M59.52,8.8A.41.41,0,0,0,60,9l0,0,.09,0,.1.19L61,8.65l3.4-1.14c0,.19-.1.38-.13.57a8.33,8.33,0,0,0,.23,3.7,8.92,8.92,0,0,0,.51,1.3,9.08,9.08,0,0,1-.41-1.33,8.09,8.09,0,0,1,0-3.59,8.4,8.4,0,0,1,.25-.81l.22-.07a.8.8,0,0,0,.5.57.83.83,0,0,0,.83-.16,6.88,6.88,0,0,0,1.08-1.23c1.67-.57,3.14-1.08,4.2-1.47a10.21,10.21,0,0,1,1.83-.37l1.89-.29L78,3.93c.07.1.15.15.2.21l.14-.27.12,0,.07,0a.09.09,0,0,0,.11-.05l.1,0h.16l0,0,.09.1h0l0,0,.11-.11.66,0,.24.36-.57.36a11,11,0,0,1,1,1.66,7.67,7.67,0,0,1-.77,7.59,9,9,0,0,1-4.86,3.58,9.08,9.08,0,0,1-4.79-.3,11.33,11.33,0,0,1-3.4-2.1c-.69-.78-1.08-1.24-1.29-1.52a1.84,1.84,0,0,0-.29-.32l.27.57a12.85,12.85,0,0,0,.94,1.55l0,0,0,0a10.48,10.48,0,0,0,3.36,2.57l.06,0a9.82,9.82,0,0,0,5.3.67h.08A10.2,10.2,0,0,0,82,12.75a9,9,0,0,0,.77-4.07A8.76,8.76,0,0,0,82,5.51a11.36,11.36,0,0,0-1-1.77l1-.06.42,0h.26a1,1,0,0,0,.27-.09s.17,0,.38-.5l1.47-.24h0a.67.67,0,0,0-.1-1.33c-2.55,0-4.57,0-6.21,0A14,14,0,0,0,77,.67h0l-.08,0A10.11,10.11,0,0,0,71.55.17l-.1,0a10.11,10.11,0,0,0-4.94,3.2,9.87,9.87,0,0,0-1.31,2L61.86,7.12,59.68,8l.1.2-.08,0A.41.41,0,0,0,59.52,8.8ZM73.88,2.93a14.46,14.46,0,0,0-2.68.51l-2.39.91A2,2,0,0,0,69,3.83c1.69-1,2.86-1.64,3-1.68s.46-.07,1-.08l2.83.17L77,2.31l.29.17-.16,0Zm-6.82,1A9.29,9.29,0,0,1,71.7,1.28a8.9,8.9,0,0,1,3.67.31l-1.48.1a4.43,4.43,0,0,0-1.62.3,2,2,0,0,0-.33.15c-.22.07-1.72.74-3.78,1.78l-1.95,1A9.55,9.55,0,0,1,67.06,3.89Z"/><path class="cls-1" d="M98.88,9.09a.68.68,0,0,0-.25,0,1.77,1.77,0,0,0-.69.21l-.25.15-1.34-.34A5.25,5.25,0,0,0,94.08,9a4.72,4.72,0,0,0-1.71.77h0a.81.81,0,0,0,.52,1.46h0c.74,0,1.36-.07,1.94-.07l1.44,0h.17a1.23,1.23,0,0,0,.31,0,1.46,1.46,0,0,0,.41-.18,2.43,2.43,0,0,0,.46-.4,6.27,6.27,0,0,0,.5-.63l.11-.15.6-.07a.79.79,0,0,0,.76.6,1.56,1.56,0,0,1,.54.44l.69.79a2.68,2.68,0,0,0,1.94,1.11A6.23,6.23,0,0,0,105,12l.51-.21a2.85,2.85,0,0,0,.36.3,2.77,2.77,0,0,1-.25-.34c.41-.14.58-.16.55-.19a1.58,1.58,0,0,0-.22-.1,2.33,2.33,0,0,0-.52-.08c0-.06-.05-.11-.08-.18a14.79,14.79,0,0,0-.8-2.13,2,2,0,0,0-.51-.58,1.71,1.71,0,0,0-.74-.34,3.45,3.45,0,0,0-1.5.09c-.86.22-1.49.43-1.8.45a1.62,1.62,0,0,1-.2,0l-.33,0a.79.79,0,0,0-.69.88s0,.06,0,.1l-.47-.11C98.7,9.21,98.93,9.11,98.88,9.09Zm5.08.49a17.22,17.22,0,0,1,1.21,1.73h0c-.57,0-1.29.14-2,.15a1.75,1.75,0,0,1-.45-.05l-.07,0h0l-.07,0a.43.43,0,0,1-.15-.11,5.19,5.19,0,0,1-.64-.81l-.37-.52C102.45,9.45,103.41,8.87,104,9.57ZM96.56,10l-.31-.06h.07l.58,0A.73.73,0,0,1,96.56,10Z"/><path class="cls-1" d="M110.07,31.5l-.15-.13C109.88,31.57,109.95,31.6,110.07,31.5Z"/><path class="cls-1" d="M121.54,35.91a9.5,9.5,0,0,0-1.89-2,12.39,12.39,0,0,0-2.16-1.29l-.11,0h0a11.68,11.68,0,0,0-3-.61c-1.38-1.09-2.7-2.1-3.74-2.85.22-.26.45-.5.66-.78l0,0v0a15,15,0,0,0,2.4-6.07,14.27,14.27,0,0,0-.79-7,15.58,15.58,0,0,0-9-9.08h-.08a15.29,15.29,0,0,0-5.58-.62,16.15,16.15,0,0,0-4.07.93l-.11,0a16.07,16.07,0,0,0-5.39,3.78l-.08.08a15,15,0,0,0-3.33,6.75A14.07,14.07,0,0,0,86,24.84a15.44,15.44,0,0,0,4.07,5.91,15,15,0,0,0,5.07,3h0a16,16,0,0,0,4,.58l1.46-.1-1.47,0a15.8,15.8,0,0,1-3.9-.76h0a14.62,14.62,0,0,1-4.83-3.19,14.8,14.8,0,0,1-3.62-5.82,13.12,13.12,0,0,1-.37-7.16,13.8,13.8,0,0,1,3.27-6A15,15,0,0,1,94.7,8a15.47,15.47,0,0,1,3.68-.8c.42,0,.9,0,1.29,0s.85,0,1.3.09a16.34,16.34,0,0,1,2.41.48,13.83,13.83,0,0,1,4.25,2.54.81.81,0,0,0-.56.26.84.84,0,0,0-.19.76,10.91,10.91,0,0,0,1.34,3.49c0,.1,0,.21.06.29a5.71,5.71,0,0,0,.18.58s0-.2.06-.5c.33.35.55.36.55.36s-.07-.78-.18-1.72l0-.09a4.63,4.63,0,0,0,.28-.82,2,2,0,0,0-.07-1c0-.06,0-.11-.07-.17.17.2.36.38.52.59a14.16,14.16,0,0,1,2.76,5.94,12.77,12.77,0,0,1-.09,5.45,16,16,0,0,1-1.76,4.16c-.21.3-.42.55-.64.82l-.19-.13-.28-.18a.82.82,0,0,0-1,1.29l.35.33A17.66,17.66,0,0,1,106.31,32a18.93,18.93,0,0,1-4.65,2,5.76,5.76,0,0,0-1,.26l.43,0a7.4,7.4,0,0,0,1.23-.15,16.43,16.43,0,0,0,4.29-1.52h0l0,0a16.35,16.35,0,0,0,2.66-2,.81.81,0,0,0,.17.49h0l.08.08.25.22.09.08s0,0,0-.06l-.06,0h0l0-.06,0,0,.06,0,.11.08.09.07-.09.09.26.23.8.7-.48.14h0l-.05,0a9.62,9.62,0,0,0-3.11,2,8.67,8.67,0,0,0-2.27,4.09,10.62,10.62,0,0,0,2.2,9.28l0,0,0,0c.37.29.73.6,1.09.85A9.38,9.38,0,0,0,112,50.4h.05l.93.11a3.43,3.43,0,0,0,.47,0h.42a10.61,10.61,0,0,0,1.41-.13c.78-.16,1.18-.29,1.18-.29s-.41.09-1.19.19a9.81,9.81,0,0,1-3.16-.25h0a9.66,9.66,0,0,1-4.18-2.55,9.74,9.74,0,0,1-1.47-8.48,7.44,7.44,0,0,1,2-3.3,8.51,8.51,0,0,1,2.71-1.62l.64-.18c.26-.08.51-.11.76-.15l.07.08s.11.14.1.1a.9.9,0,0,1,0-.22h.06l.17.16v0h.06l0,0,0,.3.32-.05c2.2,2,3.7,3.18,4.68,3.94a2.37,2.37,0,0,0,1.25.41l.52.08a1.86,1.86,0,0,0,.13.53,1.92,1.92,0,0,1-.07-.51l.14,0c.38.13.46.2.46.18l-.08-.11a1.5,1.5,0,0,0-.38-.3l-.12-.05c0-.34.12-.73.12-1.2s-.6-1-1.14-1.5l-1.69-1.42a7.83,7.83,0,0,1,4.09,4v0a.77.77,0,0,0-.18,0,.82.82,0,0,0-.55.55v0a4.67,4.67,0,0,0-.22,2.29,3.89,3.89,0,0,0-.13.63s.1-.11.25-.25a1,1,0,0,0,.34.44s.28-.5.59-1.08a1.68,1.68,0,0,0,.43-.36,9.47,9.47,0,0,1-.11,2.53,10.32,10.32,0,0,1-2.82,5.41c-1,.7-1.63,1.1-2,1.3a2.36,2.36,0,0,0-.43.29l.73-.24a14.72,14.72,0,0,0,2-.91l0,0,0,0a10.43,10.43,0,0,0,3.83-7.82A8.72,8.72,0,0,0,121.54,35.91Zm-2.1.81a.65.65,0,0,1,.32.51,9,9,0,0,1,0,1.13c-.3-.14-.65-.26-1-.44a.87.87,0,0,1-.24-.18l-.31-.35-.71-.76-1.62-1.7-.57-.59.41.11h-.05l.67.27.08.05h0l.08.05,2,1.31Z"/></svg>