<svg id="Layer_1" data-name="Layer 1" xmlns="http://www.w3.org/2000/svg" viewBox="0 0 43.32 59.59"><defs><style>.cls-1{fill:#231f20;}</style></defs><title>location</title><path class="cls-1" d="M11.13,34a15.82,15.82,0,0,0,10.6,3.69,15.47,15.47,0,0,0,12.51-6.84l0,0a13.87,13.87,0,0,0,2.35-6.94,6.88,6.88,0,0,0-.06-1.46h0a15.15,15.15,0,0,0,0-1.52,16.08,16.08,0,0,0-.84-4.1,16.63,16.63,0,0,0-3.06-5.37,15.64,15.64,0,0,0-6.05-4.41,14.82,14.82,0,0,0-8.1-.82A15.75,15.75,0,0,0,11.1,9.64a15.93,15.93,0,0,0-4.41,5.84,15.53,15.53,0,0,0-1.3,5.63A16,16,0,0,0,11.13,34ZM7,21.15A14.72,14.72,0,0,1,18.66,7.31a13.94,13.94,0,0,1,7.61.5,15,15,0,0,1,6,4,16.35,16.35,0,0,1,3.2,5.12,16.07,16.07,0,0,1,1,4,15.17,15.17,0,0,1,.1,1.52l-.06.61a12.44,12.44,0,0,1-.26,1.71,15.32,15.32,0,0,1-2.57,5.67,14.86,14.86,0,0,1-17.91,4.8A14.72,14.72,0,0,1,7,21.15Z"/><path class="cls-1" d="M1.4,29.25A21.41,21.41,0,0,0,9,39c.8.57,1.3.87,1.45,1L21.1,59.34a.47.47,0,0,0,.65.18.46.46,0,0,0,.18-.18h0l11-19.13a22,22,0,0,0,6.83-6.56,20.88,20.88,0,0,0,2.14-4.14A21.46,21.46,0,0,0,43,25.22a20.26,20.26,0,0,0-2.65-14,23,23,0,0,0-7.22-7.4A23.37,23.37,0,0,0,20.4,0h-.07a23.63,23.63,0,0,0-7.52,1.88A21.61,21.61,0,0,0,1.91,12.74,22,22,0,0,0,.07,19.88a.36.36,0,0,0,.06.18L.07,20A21.23,21.23,0,0,0,1.4,29.25Zm-.8-9.43.07.12a21.39,21.39,0,0,1,2-6.89A21,21,0,0,1,7,7,20.78,20.78,0,0,1,13.29,2.9a22.55,22.55,0,0,1,7.13-1.62A22.39,22.39,0,0,1,39,12a19,19,0,0,1,2.7,8.31A20.39,20.39,0,0,1,32,39.16h0a.7.7,0,0,0-.24.25L21.5,58.17C12.89,43.45,10.79,40.48,10.43,40l0,0,0,0-.07-.08,0,.06c-.15-.09-.64-.41-1.42-1a21.25,21.25,0,0,1-7.23-9.88A20.76,20.76,0,0,1,.67,20l-.12-.13Z"/><path class="cls-1" d="M10.22,23.29l-.15-.14v0a.12.12,0,0,0,0,0A.18.18,0,0,0,10.22,23.29Z"/><path class="cls-1" d="M10,21.21a12.53,12.53,0,0,1,.84-3.08,12.19,12.19,0,0,1,7.05-6.83,10.31,10.31,0,0,1,5.7-.29A11,11,0,0,1,32.1,21.23a10.76,10.76,0,0,1-8.32,11,11.05,11.05,0,0,1-9.27-2A11.89,11.89,0,0,1,11,25.7a14.85,14.85,0,0,1-.82-2.28l.07,0-.09-.08,0-.16,0,0h0a3.53,3.53,0,0,0-.19-.74l0,.76v0a11.68,11.68,0,0,0,2,5.46,11.91,11.91,0,0,0,3.48,3.29,11.77,11.77,0,0,0,5.2,1.72,12,12,0,0,0,12.58-8.59,12.26,12.26,0,0,0,.48-3.89,11.9,11.9,0,0,0-1-4.25,12.1,12.1,0,0,0-3.34-4.41,11.76,11.76,0,0,0-11.76-2A12.78,12.78,0,0,0,9.91,21.2a11.78,11.78,0,0,0,0,1.2A11.61,11.61,0,0,1,10,21.21Z"/></svg>